<?xml version="1.0" encoding="UTF-8" standalone="no"?>
<!DOCTYPE svg PUBLIC "-//W3C//DTD SVG 1.1//EN" "http://www.w3.org/Graphics/SVG/1.1/DTD/svg11.dtd">
<svg width="100%" height="100%" viewBox="0 0 88 88" version="1.1" xmlns="http://www.w3.org/2000/svg" xmlns:xlink="http://www.w3.org/1999/xlink" xml:space="preserve" xmlns:serif="http://www.serif.com/" style="fill-rule:evenodd;clip-rule:evenodd;stroke-linejoin:round;stroke-miterlimit:2;">
    <g transform="matrix(1,0,0,1,-3932.17,-862.57)">
        <g transform="matrix(1,0,0,1,2778,0)">
            <g transform="matrix(0.833068,0,0,0.833068,199.937,130.303)">
                <g>
                    <g transform="matrix(1.73206,0,0,1.73206,359.992,757.898)">
                        <path d="M511.322,79.056C511.322,82.37 508.611,84.981 505.398,84.981C502.184,84.981 499.473,82.269 499.473,79.056L499.473,72.428L511.322,72.428L511.322,79.056ZM507.708,127.658L503.791,127.658L503.791,98.838C503.791,98.135 503.188,97.533 502.485,97.533L487.422,97.533C486.719,97.533 486.117,98.135 486.117,98.838L486.117,127.658L459.908,127.658L459.908,87.19C463.523,88.194 467.339,86.587 469.347,83.474C470.854,85.884 473.565,87.491 476.577,87.491C479.59,87.491 482.301,85.884 483.807,83.474C485.314,85.884 488.025,87.491 491.038,87.491C494.05,87.491 496.761,85.884 498.268,83.474C500.276,86.688 504.092,88.194 507.708,87.19L507.708,127.658ZM488.728,127.658L488.728,100.043L501.281,100.043L501.281,127.658L488.728,127.658ZM456.092,72.428L468.042,72.428L468.042,79.056C468.042,82.37 465.331,84.981 462.117,84.981C458.904,84.981 456.092,82.269 456.092,79.056L456.092,72.428ZM482.502,79.056C482.502,82.37 479.791,84.981 476.577,84.981C473.364,84.981 470.653,82.269 470.653,79.056L470.653,72.428L482.603,72.428L482.603,79.056L482.502,79.056ZM496.862,79.056C496.862,82.37 494.151,84.981 490.937,84.981C487.724,84.981 485.012,82.269 485.012,79.056L485.012,72.428L496.962,72.428L496.962,79.056L496.862,79.056ZM513.833,79.056L513.833,71.223C513.833,70.521 513.229,69.918 512.526,69.918L454.787,69.918C454.083,69.918 453.481,70.521 453.481,71.223L453.481,79.056C453.481,81.968 454.987,84.579 457.297,86.085C457.297,86.286 457.297,84.378 457.297,127.658L454.787,127.658C454.083,127.658 453.481,128.26 453.481,128.963C453.481,129.666 454.083,130.269 454.787,130.269L512.526,130.269C513.229,130.269 513.833,129.666 513.833,128.963C513.833,128.26 513.229,127.658 512.526,127.658L510.017,127.658C510.017,84.378 510.017,86.286 510.017,86.085C512.327,84.579 513.833,81.968 513.833,79.056Z" style="fill:white;fill-rule:nonzero;"/>
                    </g>
                    <g transform="matrix(1.73206,0,0,1.73206,359.992,757.898)">
                        <path d="M481.197,112.595L466.134,112.595L466.134,100.043L481.197,100.043L481.197,112.595ZM482.502,97.533L464.929,97.533C464.226,97.533 463.624,98.135 463.624,98.838L463.624,113.9C463.624,114.604 464.226,115.206 464.929,115.206L482.502,115.206C483.205,115.206 483.807,114.604 483.807,113.9L483.807,98.838C483.708,98.135 483.105,97.533 482.502,97.533Z" style="fill:white;fill-rule:nonzero;"/>
                    </g>
                </g>
            </g>
        </g>
    </g>
</svg>
