<?xml version="1.0" encoding="UTF-8" standalone="no"?>
<!DOCTYPE svg PUBLIC "-//W3C//DTD SVG 1.1//EN" "http://www.w3.org/Graphics/SVG/1.1/DTD/svg11.dtd">
<svg width="100%" height="100%" viewBox="0 0 105 105" version="1.1" xmlns="http://www.w3.org/2000/svg" xmlns:xlink="http://www.w3.org/1999/xlink" xml:space="preserve" xmlns:serif="http://www.serif.com/" style="fill-rule:evenodd;clip-rule:evenodd;stroke-linejoin:round;stroke-miterlimit:2;">
    <g transform="matrix(1,0,0,1,-4161.3,-843.68)">
        <g transform="matrix(1,0,0,1,2778,0)">
            <g transform="matrix(1.71854,0,0,1.71854,1263.73,63.5699)">
                <path d="M117.626,511.975L117.626,496.835L127.72,496.835L127.72,511.975L117.626,511.975ZM105.009,511.975L105.009,496.835L115.103,496.835L115.103,511.975L105.009,511.975ZM82.299,456.461L107.533,456.461L107.533,476.648L103.697,476.648C102.991,476.648 102.385,477.253 102.385,477.96L102.385,512.076L82.299,512.076L82.299,456.461ZM115.103,494.312L105.009,494.312L105.009,479.171L115.103,479.171L115.103,494.312ZM127.72,494.312L117.626,494.312L117.626,479.171L127.72,479.171L127.72,494.312ZM129.032,476.648L110.056,476.648L110.056,455.25C110.056,454.543 109.451,453.938 108.744,453.938L81.087,453.938C80.381,453.938 79.775,454.543 79.775,455.25L79.775,511.975L70.893,511.975C70.187,511.975 69.581,512.58 69.581,513.287C69.581,513.993 70.187,514.6 70.893,514.6L128.931,514.6C129.636,514.6 130.243,513.993 130.243,513.287L130.243,477.96C130.243,477.253 129.636,476.648 129.032,476.648Z" style="fill:white;fill-rule:nonzero;"/>
            </g>
        </g>
    </g>
</svg>
