<?xml version="1.0" encoding="UTF-8" standalone="no"?>
<!DOCTYPE svg PUBLIC "-//W3C//DTD SVG 1.1//EN" "http://www.w3.org/Graphics/SVG/1.1/DTD/svg11.dtd">
<svg width="100%" height="100%" viewBox="0 0 88 88" version="1.1" xmlns="http://www.w3.org/2000/svg" xmlns:xlink="http://www.w3.org/1999/xlink" xml:space="preserve" xmlns:serif="http://www.serif.com/" style="fill-rule:evenodd;clip-rule:evenodd;stroke-linejoin:round;stroke-miterlimit:2;">
    <g transform="matrix(1,0,0,1,-2976.7,-862.545)">
        <g transform="matrix(1,0,0,1,2778,0)">
            <g transform="matrix(1.43692,0,0,1.43692,-815.146,392.98)">
                <path d="M757.349,384.797L749.78,384.797L749.78,357.04L757.349,357.04L757.349,384.797ZM737.163,384.797L737.163,357.04L747.256,357.04L747.256,384.797L737.163,384.797ZM724.545,384.797L724.545,357.04L734.639,357.04L734.639,384.797L724.545,384.797ZM714.453,357.04L722.022,357.04L722.022,384.797L714.453,384.797L714.453,357.04ZM708.093,349.47L763.608,349.47L763.608,354.517L708.093,354.517L708.093,349.47ZM735.85,329.788L753.009,346.947L718.692,346.947L735.85,329.788ZM764.919,357.04C765.626,357.04 766.232,356.435 766.232,355.729L766.232,348.158C766.232,347.451 765.626,346.846 764.919,346.846L756.542,346.846L736.759,327.164C736.254,326.659 735.447,326.659 734.942,327.164L715.159,346.947L706.882,346.947C706.175,346.947 705.57,347.553 705.57,348.259L705.57,355.829C705.57,356.535 706.175,357.142 706.882,357.142L711.929,357.142L711.929,384.797L706.882,384.797C706.175,384.797 705.57,385.403 705.57,386.109C705.57,386.816 706.175,387.422 706.882,387.422L764.919,387.422C765.626,387.422 766.232,386.816 766.232,386.109C766.232,385.403 765.626,384.797 764.919,384.797L759.873,384.797L759.873,357.04L764.919,357.04Z" style="fill:white;fill-rule:nonzero;"/>
            </g>
        </g>
    </g>
</svg>
