<?xml version="1.0" encoding="UTF-8" standalone="no"?>
<!DOCTYPE svg PUBLIC "-//W3C//DTD SVG 1.1//EN" "http://www.w3.org/Graphics/SVG/1.1/DTD/svg11.dtd">
<svg width="100%" height="100%" viewBox="0 0 105 105" version="1.1" xmlns="http://www.w3.org/2000/svg" xmlns:xlink="http://www.w3.org/1999/xlink" xml:space="preserve" xmlns:serif="http://www.serif.com/" style="fill-rule:evenodd;clip-rule:evenodd;stroke-linejoin:round;stroke-miterlimit:2;">
    <g transform="matrix(1,0,0,1,-3448.2,-843.854)">
        <g transform="matrix(1,0,0,1,2778,0)">
            <g transform="matrix(1.71719,0,0,1.71719,-541.224,64.2978)">
                <g>
                    <path d="M738.374,511.975L738.374,486.741L758.561,486.741L758.561,511.975L738.374,511.975ZM719.5,511.975L719.5,496.835L729.592,496.835L729.592,511.975L719.5,511.975ZM713.14,469.784L735.85,457.269L735.85,511.874L732.015,511.874L732.015,495.623C732.015,494.917 731.41,494.312 730.703,494.312L718.187,494.312C717.48,494.312 716.875,494.917 716.875,495.623L716.875,511.975L713.14,511.975L713.14,469.784ZM764.919,511.975L761.084,511.975L761.084,485.53C761.084,484.823 760.478,484.218 759.772,484.218L738.374,484.218L738.374,455.25C738.374,454.341 737.365,453.635 736.457,454.14L711.222,468.068C710.819,468.271 710.617,468.674 710.617,469.179L710.617,511.975L706.782,511.975C706.075,511.975 705.469,512.58 705.469,513.287C705.469,513.993 706.075,514.6 706.782,514.6L764.819,514.6C765.525,514.6 766.13,513.993 766.13,513.287C766.13,512.58 765.525,511.975 764.919,511.975Z" style="fill:white;fill-rule:nonzero;"/>
                    <path d="M720.71,476.648L723.234,476.648L723.234,483.007C723.234,483.713 723.839,484.218 724.545,484.218C725.252,484.218 725.858,483.612 725.858,482.905L725.858,476.648L728.281,476.648C728.987,476.648 729.592,476.042 729.592,475.336C729.592,474.629 728.987,474.024 728.281,474.024L725.757,474.024L725.757,472.711C725.757,472.005 725.152,471.399 724.445,471.399C723.738,471.399 723.234,472.207 723.234,472.913L723.234,474.226L720.71,474.226C720.003,474.226 719.398,474.831 719.398,475.537C719.5,476.042 720.003,476.648 720.71,476.648Z" style="fill:white;fill-rule:nonzero;"/>
                    <path d="M742.209,495.623C741.502,495.623 740.897,496.23 740.897,496.936L740.897,501.983C740.897,502.689 741.502,503.295 742.209,503.295C742.916,503.295 743.42,502.588 743.42,501.881L743.42,496.835C743.42,496.128 742.815,495.623 742.209,495.623Z" style="fill:white;fill-rule:nonzero;"/>
                    <path d="M748.467,495.623C747.76,495.623 747.155,496.23 747.155,496.936L747.155,501.983C747.155,502.689 747.76,503.295 748.467,503.295C749.173,503.295 749.78,502.689 749.78,501.983L749.78,496.936C749.78,496.128 749.173,495.623 748.467,495.623Z" style="fill:white;fill-rule:nonzero;"/>
                    <path d="M754.826,495.623C754.12,495.623 753.514,496.23 753.514,496.936L753.514,501.983C753.514,502.689 754.12,503.295 754.826,503.295C755.533,503.295 756.138,502.689 756.138,501.983L756.138,496.936C756.038,496.128 755.432,495.623 754.826,495.623Z" style="fill:white;fill-rule:nonzero;"/>
                </g>
            </g>
        </g>
    </g>
</svg>
