<?xml version="1.0" encoding="UTF-8" standalone="no"?>
<!DOCTYPE svg PUBLIC "-//W3C//DTD SVG 1.1//EN" "http://www.w3.org/Graphics/SVG/1.1/DTD/svg11.dtd">
<svg width="100%" height="100%" viewBox="0 0 91 91" version="1.1" xmlns="http://www.w3.org/2000/svg" xmlns:xlink="http://www.w3.org/1999/xlink" xml:space="preserve" xmlns:serif="http://www.serif.com/" style="fill-rule:evenodd;clip-rule:evenodd;stroke-linejoin:round;stroke-miterlimit:2;">
    <g transform="matrix(1,0,0,1,-3217.15,-859.031)">
        <g transform="matrix(1,0,0,1,2778,0)">
            <g transform="matrix(0.358182,0,0,0.358182,-44.2964,710.77)">
                <g>
                    <g transform="matrix(4.16667,0,0,4.16667,0,-947.573)">
                        <path d="M326.561,329.283L382.075,329.283L382.075,355.729L379.551,355.729L379.551,350.076C379.551,346.24 376.422,343.111 372.587,343.111C368.751,343.111 365.623,346.24 365.623,350.076L365.623,355.729L361.888,355.729L361.888,350.682C361.888,346.543 358.456,343.111 354.318,343.111C350.179,343.111 346.748,346.543 346.748,350.782L346.748,355.829L342.912,355.829L342.912,350.177C342.912,346.341 339.783,343.212 335.948,343.212C332.112,343.212 328.983,346.341 328.983,350.177L328.983,355.829L326.561,355.829L326.561,329.283ZM325.249,358.353L330.295,358.353C331.002,358.353 331.607,357.747 331.607,357.04L331.607,350.076C331.607,347.653 333.626,345.635 336.048,345.635C338.471,345.635 340.49,347.653 340.49,350.076L340.49,357.04C340.49,357.747 341.095,358.353 341.802,358.353L348.161,358.353C348.867,358.353 349.473,357.747 349.473,357.04L349.473,350.682C349.473,347.856 351.693,345.635 354.52,345.635C357.346,345.635 359.566,347.856 359.566,350.682L359.566,357.04C359.566,357.747 360.172,358.353 360.878,358.353L366.935,358.353C367.641,358.353 368.247,357.747 368.247,357.04L368.247,350.076C368.247,347.653 370.265,345.635 372.688,345.635C375.11,345.635 377.129,347.653 377.129,350.076L377.129,357.04C377.129,357.747 377.734,358.353 378.441,358.353L383.488,358.353C384.194,358.353 384.8,357.747 384.8,357.04L384.8,328.072C384.8,327.365 384.194,326.76 383.488,326.76L325.249,326.76C324.542,326.76 323.937,327.365 323.937,328.072L323.937,357.142C324.038,357.747 324.643,358.353 325.249,358.353Z" style="fill:white;fill-rule:nonzero;"/>
                    </g>
                    <g transform="matrix(4.16667,0,0,4.16667,0,-947.573)">
                        <path d="M383.689,364.711C383.286,364.61 372.789,361.582 367.237,367.639C366.026,368.85 363.402,368.648 360.677,368.446C357.346,368.143 353.611,367.84 350.987,370.061C349.473,371.373 347.151,371.474 345.537,371.273C341.499,370.969 337.462,368.95 336.452,367.639C335.241,366.226 332.819,365.721 329.387,366.226C327.065,366.528 325.047,367.234 324.946,367.234C324.239,367.437 323.937,368.143 324.138,368.85C324.34,369.557 325.047,369.859 325.753,369.657C328.58,368.749 333.323,367.941 334.434,369.253C336.25,371.373 341.095,373.392 345.233,373.694C347.858,373.897 350.583,373.594 352.602,371.878C354.418,370.363 357.447,370.566 360.475,370.868C363.705,371.171 367.136,371.373 369.155,369.253C373.596,364.408 382.882,367.033 382.983,367.134C383.689,367.336 384.396,366.932 384.598,366.326C384.699,365.519 384.396,364.813 383.689,364.711Z" style="fill:white;fill-rule:nonzero;"/>
                    </g>
                    <g transform="matrix(4.16667,0,0,4.16667,0,-947.573)">
                        <path d="M383.689,378.236C383.286,378.136 372.789,375.108 367.237,381.164C366.026,382.375 363.402,382.173 360.677,381.971C357.346,381.668 353.611,381.365 350.987,383.586C349.473,384.899 347.151,384.999 345.537,384.797C341.499,384.494 337.462,382.476 336.452,381.164C335.241,379.751 332.819,379.246 329.387,379.751C327.065,380.054 325.047,380.76 324.946,380.76C324.239,380.962 323.937,381.668 324.138,382.375C324.34,383.081 325.047,383.384 325.753,383.183C328.58,382.274 333.323,381.467 334.434,382.778C336.25,384.899 341.095,386.917 345.233,387.22C347.858,387.422 350.583,387.119 352.602,385.403C354.418,383.889 357.447,384.091 360.475,384.394C363.705,384.696 367.136,384.899 369.155,382.778C373.596,377.934 382.882,380.558 382.983,380.659C383.689,380.861 384.396,380.457 384.598,379.852C384.699,379.145 384.396,378.439 383.689,378.236Z" style="fill:white;fill-rule:nonzero;"/>
                    </g>
                </g>
            </g>
        </g>
    </g>
</svg>
