<?xml version="1.0" encoding="UTF-8" standalone="no"?>
<!DOCTYPE svg PUBLIC "-//W3C//DTD SVG 1.1//EN" "http://www.w3.org/Graphics/SVG/1.1/DTD/svg11.dtd">
<svg width="32" height="32" viewBox="0 0 71 69" version="1.1" xmlns="http://www.w3.org/2000/svg" xmlns:xlink="http://www.w3.org/1999/xlink" xml:space="preserve" xmlns:serif="http://www.serif.com/" style="fill-rule:evenodd;clip-rule:evenodd;stroke-linejoin:round;stroke-miterlimit:2;">
    <g transform="matrix(1,0,0,1,-1709,-1368.52)">
        <g transform="matrix(0.503546,0,0,0.503546,848.44,713.404)">
            <path d="M1780,1301L1850,1351L1850,1437L1789,1436L1789,1339L1822,1362L1822,1430L1844,1430L1845,1353L1780,1308L1715,1354L1715,1430L1737,1430L1737,1382L1771,1358L1771,1436L1710,1436L1709,1352L1780,1301ZM1794,1349L1817,1364L1817,1431L1794,1431L1794,1349ZM1766,1369L1766,1431L1744,1431L1744,1385L1766,1369Z" style="fill:rgb(216,171,92);"/>
        </g>
    </g>
</svg>
