<?xml version="1.0" encoding="UTF-8" standalone="no"?>
<!DOCTYPE svg PUBLIC "-//W3C//DTD SVG 1.1//EN" "http://www.w3.org/Graphics/SVG/1.1/DTD/svg11.dtd">
<svg width="100%" height="100%" viewBox="0 0 88 88" version="1.1" xmlns="http://www.w3.org/2000/svg" xmlns:xlink="http://www.w3.org/1999/xlink" xml:space="preserve" xmlns:serif="http://www.serif.com/" style="fill-rule:evenodd;clip-rule:evenodd;stroke-linejoin:round;stroke-miterlimit:2;">
    <g transform="matrix(1,0,0,1,-4407.39,-861.963)">
        <g transform="matrix(1,0,0,1,2778,0)">
            <g transform="matrix(0.833313,0,0,0.833313,278.892,140.314)">
                <g>
                    <g>
                        <g transform="matrix(1.73097,0,0,1.73097,1279.88,300.562)">
                            <path d="M256.209,384.797L198.172,384.797C197.465,384.797 196.86,385.403 196.86,386.109C196.86,386.816 197.465,387.422 198.172,387.422L256.209,387.422C256.915,387.422 257.521,386.816 257.521,386.109C257.42,385.403 256.815,384.797 256.209,384.797Z" style="fill:white;fill-rule:nonzero;"/>
                        </g>
                        <g transform="matrix(1.73097,0,0,1.73097,1279.88,300.562)">
                            <path d="M205.742,381.063C205.742,381.77 206.348,382.375 207.054,382.375L247.428,382.375C248.135,382.375 248.74,381.77 248.74,381.063C248.74,380.357 248.135,379.751 247.428,379.751L207.054,379.751C206.247,379.751 205.742,380.357 205.742,381.063Z" style="fill:white;fill-rule:nonzero;"/>
                        </g>
                        <g transform="matrix(1.73097,0,0,1.73097,1279.88,300.562)">
                            <path d="M239.757,376.016L239.757,353.306C239.757,352.6 239.151,351.993 238.445,351.993C237.738,351.993 237.133,352.6 237.133,353.306L237.133,376.016C237.133,376.723 237.738,377.328 238.445,377.328C239.151,377.328 239.757,376.621 239.757,376.016Z" style="fill:white;fill-rule:nonzero;"/>
                        </g>
                        <g transform="matrix(1.73097,0,0,1.73097,1279.88,300.562)">
                            <path d="M217.047,376.016L217.047,353.306C217.047,352.6 216.441,351.993 215.734,351.993C215.028,351.993 214.523,352.6 214.523,353.306L214.523,376.016C214.523,376.723 215.129,377.328 215.835,377.328C216.542,377.328 217.047,376.621 217.047,376.016Z" style="fill:white;fill-rule:nonzero;"/>
                        </g>
                        <g transform="matrix(1.73097,0,0,1.73097,1279.88,300.562)">
                            <path d="M203.219,349.47L251.163,349.47C251.869,349.47 252.475,348.864 252.475,348.158C252.475,347.451 251.869,346.846 251.163,346.846L203.219,346.846C202.512,346.846 201.906,347.451 201.906,348.158C201.906,348.864 202.512,349.47 203.219,349.47Z" style="fill:white;fill-rule:nonzero;"/>
                        </g>
                        <g transform="matrix(1.73097,0,0,1.73097,1279.88,300.562)">
                            <path d="M223.406,329.283L230.976,329.283C238.243,329.283 244.198,334.835 244.804,341.9L209.578,341.9C210.183,334.835 216.138,329.283 223.406,329.283ZM208.266,344.424L246.116,344.424C246.822,344.424 247.428,343.817 247.428,343.111C247.428,334.027 240.06,326.659 230.976,326.659L223.406,326.659C214.321,326.659 206.953,334.027 206.953,343.111C206.953,343.817 207.559,344.424 208.266,344.424Z" style="fill:white;fill-rule:nonzero;"/>
                        </g>
                        <g transform="matrix(1.73097,0,0,1.73097,1279.88,300.562)">
                            <path d="M228.452,376.016L228.452,353.306C228.452,352.6 227.847,351.993 227.14,351.993C226.434,351.993 225.828,352.6 225.828,353.306L225.828,376.016C225.828,376.723 226.434,377.328 227.14,377.328C227.847,377.228 228.452,376.621 228.452,376.016Z" style="fill:white;fill-rule:nonzero;"/>
                        </g>
                    </g>
                </g>
            </g>
        </g>
    </g>
</svg>
