<?xml version="1.0" encoding="UTF-8" standalone="no"?>
<!DOCTYPE svg PUBLIC "-//W3C//DTD SVG 1.1//EN" "http://www.w3.org/Graphics/SVG/1.1/DTD/svg11.dtd">
<svg width="100%" height="100%" viewBox="0 0 99 86" version="1.1" xmlns="http://www.w3.org/2000/svg" xmlns:xlink="http://www.w3.org/1999/xlink" xml:space="preserve" xmlns:serif="http://www.serif.com/" style="fill-rule:evenodd;clip-rule:evenodd;stroke-linejoin:round;stroke-miterlimit:2;">
    <g transform="matrix(1,0,0,1,-3688.83,-863.857)">
        <g transform="matrix(1,0,0,1,2778,0)">
            <g transform="matrix(1.62911,0,0,1.62911,-34.0638,743.778)">
                <g>
                    <path d="M610.234,92.512C608.829,92.512 607.724,91.407 607.724,90.002C607.724,88.596 608.829,87.491 610.234,87.491C611.64,87.491 612.745,88.596 612.745,90.002C612.745,91.407 611.64,92.512 610.234,92.512ZM610.234,84.981C607.422,84.981 605.213,87.19 605.213,90.002C605.213,92.814 607.422,95.023 610.234,95.023C613.046,95.023 615.255,92.814 615.255,90.002C615.255,87.19 613.046,84.981 610.234,84.981Z" style="fill:white;fill-rule:nonzero;"/>
                    <path d="M617.766,123.942L617.766,101.348C617.766,100.646 617.164,100.043 616.46,100.043L604.008,100.043C603.305,100.043 602.703,100.646 602.703,101.348L602.703,123.942L590.05,123.942L590.05,91.809L610.334,76.545L630.318,91.608C630.418,91.809 630.519,92.01 630.62,92.11L630.62,123.842L617.766,123.842L617.766,123.942ZM615.255,123.942L605.213,123.942L605.213,102.553L615.255,102.553L615.255,123.942ZM625.297,78.755L630.318,78.755L630.318,88.395L625.297,84.579L625.297,78.755ZM639.155,123.942L633.23,123.942L633.23,93.516L638.452,96.93C639.054,97.332 639.858,97.131 640.159,96.529C640.561,95.926 640.36,95.123 639.757,94.822L632.829,90.303L632.829,77.449C632.829,76.746 632.226,76.144 631.523,76.144L623.992,76.144C623.289,76.144 622.686,76.746 622.686,77.449L622.686,82.772L610.937,73.935C610.536,73.633 609.833,73.633 609.431,73.935L588.042,90.102L580.711,94.721C580.109,95.123 579.908,95.826 580.31,96.428C580.711,97.031 581.415,97.231 582.017,96.83L587.439,93.416L587.439,123.842L581.314,123.842C580.611,123.842 580.008,124.444 580.008,125.148C580.008,125.851 580.611,126.453 581.314,126.453L639.054,126.453C639.757,126.453 640.36,125.851 640.36,125.148C640.36,124.444 639.757,123.942 639.155,123.942Z" style="fill:white;fill-rule:nonzero;"/>
                </g>
            </g>
        </g>
    </g>
</svg>
