<?xml version="1.0" encoding="UTF-8" standalone="no"?>
<!DOCTYPE svg PUBLIC "-//W3C//DTD SVG 1.1//EN" "http://www.w3.org/Graphics/SVG/1.1/DTD/svg11.dtd">
<svg width="100%" height="100%" viewBox="0 0 1085 488" version="1.1" xmlns="http://www.w3.org/2000/svg" xmlns:xlink="http://www.w3.org/1999/xlink" xml:space="preserve" xmlns:serif="http://www.serif.com/" style="fill-rule:evenodd;clip-rule:evenodd;stroke-linejoin:round;stroke-miterlimit:2;">
    <g transform="matrix(1,0,0,1,-3613,-1130)">
        <g transform="matrix(0.699843,0,0,0.699843,3598.57,1129.71)">
            <path d="M693.105,203.197L695.099,198.558L698.53,190.579L701.969,185.561L702.426,184.894L703.427,183.435L708.118,176.594L708.437,176.249L708.437,176.248L708.451,176.233L708.454,176.233L708.964,175.683L710.383,174.152L711.306,173.155L720.925,162.771L720.925,226.935L707.191,239.417L707.171,239.458L707.124,239.483L697.483,251.323L697.462,251.393L697.411,251.437L691.924,262.181L691.916,262.278L691.862,262.364L691.543,264.277L691.543,214.329L693.105,203.197ZM711.474,158.313L728.274,136.736L728.274,153.885L721.12,160.697L721.117,160.705L721.106,160.719L721.093,160.725L711.474,171.109L711.474,158.313ZM729.874,152.36L729.54,152.678L729.54,133.62L729.524,133.582L729.432,133.359L729.316,133.157L729.295,133.121L729.095,133.065L728.924,132.994L729.874,131.766L729.874,152.36ZM731.956,129.456L731.93,129.521L731.929,129.523L731.929,150.404L731.14,151.156L731.14,130.177L731.967,129.356L731.944,129.389L731.956,129.456ZM765.72,118.615L765.719,118.617L765.717,118.618L749.778,133.531L749.777,133.533L749.775,133.534L734.946,147.53L734.945,147.532L734.943,147.532L734.038,148.394L734.038,129.968L772.51,91.978L772.51,112.315L765.72,118.615ZM774.971,110.03L773.776,111.139L773.776,89.362L773.698,89.174L773.593,88.917L773.591,88.917L773.433,88.85C773.339,88.798 773.25,88.73 773.145,88.73L773.143,88.73L772.928,88.819L772.698,88.913L768.056,93.506L774.971,86.638L774.971,110.03ZM821.38,67.399L821.379,67.401L821.378,67.401L801.382,85.663L801.382,85.666L782.88,102.694L782.877,102.694L779.659,105.682L779.659,84.983L827.995,38.377L827.995,61.401L821.38,67.399ZM829.261,60.253L829.261,35.685L829.172,35.47L829.083,35.245L829.079,35.244L828.865,35.151L828.634,35.055L828.628,35.053C828.534,35.053 828.468,35.115 828.387,35.152L828.188,35.23L777.698,84.021L777.696,84.027L777.626,84.185L777.527,84.313L777.537,84.391L777.507,84.471L777.505,84.476L777.505,107.678L776.236,108.855L776.236,85.385L831.086,32.186L831.086,58.599L829.261,60.253ZM709.132,158.579L709.286,158.381L709.286,173.473L709.132,173.638L709.132,158.579ZM707.357,169.197L707.357,175.556L707.152,175.779L707.136,175.822L707.095,175.848L704.007,180.351L707.357,169.197ZM1526.49,182.887L1526.49,183.701L1481.15,196.469L1526.49,182.887ZM1289.19,250.526L1258.73,259.102L1289.19,249.745L1289.19,250.526ZM1527.75,183.345L1527.75,181.204L1527.72,181.116L1527.73,181.021L1527.62,180.894L1527.49,180.725L1527.26,180.63L1527.12,180.571L1527.03,180.608L1526.94,180.598L1366.78,228.675L1366.78,228.676L1290.46,250.169L1290.46,249.357L1541.84,173.074L1541.84,179.376L1527.75,183.345ZM1026.62,329.497L994.857,339.397L994.854,339.397L901.827,368.882L901.827,368.883L901.824,368.882L831.523,391.597L831.52,391.6L775.406,410.136L775.403,410.139L775.401,410.139L730.304,425.396L730.283,425.415L730.252,425.415L726.438,427.094L726.437,427.094L717.874,430.396L717.846,430.422L717.812,430.425L711.742,433.56L711.738,433.56L711.654,433.603L708.245,435.104L708.163,435.189L708.043,435.257L708.022,435.267L706.837,436.627L703.346,439.434L703.273,439.566L703.168,439.664L702.023,442.148L700.969,443.356L700.897,443.57L700.814,443.771L700.814,451.348L698.494,450.722L693.398,447.957L691.609,444.849L693.02,441.152L698.332,436.611L707.893,431.486L721.764,425.985L721.768,425.984L735.591,421.145L735.592,421.144L750.418,416.002L750.419,416L766.355,410.522L783.5,404.675L783.509,404.674L802.013,398.415L802.014,398.414L822.006,391.704L843.657,384.491L843.658,384.49L867.156,376.716L892.733,368.314L892.734,368.312L920.627,359.208L920.641,359.206L951.195,349.295L984.75,338.477L984.752,338.476L1027.94,324.737L1026.62,329.497ZM1409.27,435.188L1133.12,468.392L1133.12,466.625L1409.27,432.501L1409.27,435.188ZM1147.7,576.74L1147.7,631.031L1140.55,632.04L1140.55,576.677L1147.7,576.74ZM1409.27,478.891L1133.12,501.953L1133.12,469.666L1409.27,436.463L1409.27,478.891ZM1409.27,482.853L1133.12,504.995L1133.12,503.223L1409.27,480.161L1409.27,482.853ZM1148.97,591.376L1148.97,589.55L1409.27,592.355L1409.27,595.05L1148.97,591.376ZM1092.21,575.554L1092.21,459.511L1092.68,458.91L1098.35,457.593L1107.97,456.15L1118.85,455.024L1127.88,454.546L1131.86,454.817L1131.86,575.432L1092.21,575.554ZM953.974,521.003L1090.95,509.723L1090.95,575.559L953.974,575.992L953.974,521.003ZM1090.95,473.575L953.974,490.494L953.974,489.339L1090.95,471.953L1090.95,473.575ZM953.974,518.576L1090.95,506.825L1090.95,508.453L953.974,519.734L953.974,518.576ZM1090.95,505.554L953.974,517.305L953.974,491.769L1090.95,474.85L1090.95,505.554ZM949.335,489.927L952.708,489.499L952.708,575.996L949.335,576.007L949.335,489.927ZM942.263,576.029L942.263,490.825L948.069,490.088L948.069,576.011L942.263,576.029ZM938.697,576.042L938.697,506.912L940.997,506.708L940.997,576.033L938.697,576.042ZM934.414,571.407L935.47,571.461L935.505,571.461L936.907,571.455L936.978,576.046L934.36,576.056L934.414,571.407ZM924.832,549.176L925.799,548.958L932.575,555.02L930.436,555.922C930.111,556.058 929.961,556.429 930.097,556.751C930.185,556.963 930.382,557.082 930.593,557.113C930.554,557.233 930.557,557.363 930.596,557.49L928.208,558.494C927.883,558.63 927.733,559.001 927.869,559.322C927.97,559.565 928.205,559.711 928.452,559.711L928.697,559.661L931.496,558.484L931.998,558.274C932.3,558.149 932.432,557.814 932.337,557.506L934.07,556.776L934.381,558.03L934.275,559.123L931.889,560.121C931.568,560.255 931.415,560.626 931.551,560.95C931.652,561.192 931.887,561.338 932.134,561.338L932.379,561.288L934.137,560.552L933.959,562.396L933.808,563.953C933.67,563.908 933.518,563.893 933.375,563.956L932.869,564.167L930.037,565.344C929.713,565.477 929.56,565.848 929.696,566.17C929.797,566.414 930.032,566.56 930.28,566.56L930.522,566.511L933.353,565.334L933.688,565.195L933.435,567.812C933.417,568.003 933.495,568.169 933.618,568.297L932.985,568.558C932.787,568.641 932.685,568.818 932.642,569.014L931.877,569.33C931.556,569.464 931.4,569.834 931.533,570.158C931.635,570.401 931.872,570.549 932.12,570.549L932.362,570.502L933.21,570.152L933.158,570.678L933.163,570.693L933.156,570.707L933.16,570.721L933.156,570.732L933.094,576.06L924.832,576.086L924.832,549.176ZM912.077,576.128L912.077,545.052L912.055,544.998L912.077,544.941L912.077,525.093L912.666,524.958L915.717,524.681L915.719,524.681L919.684,524.473L922.881,524.427L923.566,524.498L923.566,576.09L912.077,576.128ZM855.092,564.965L910.811,552.351L910.811,576.132L855.092,576.311L855.092,564.965ZM846.716,564.753L846.798,564.912L846.875,565.061C846.989,565.167 847.137,565.235 847.302,565.235L847.315,565.235L852.713,565.126L852.714,565.125L852.77,565.121L852.775,565.118L852.841,565.111L853.826,564.887L853.826,576.315L846.716,576.338L846.716,564.753ZM760.66,557.214L822.508,555.04L845.45,554.234L845.45,576.342L760.66,576.627L760.66,557.214ZM767.154,520.475L760.66,520.549L760.66,519.127L767.154,519.051L767.154,520.475ZM784.483,520.017L768.42,520.45L768.42,519.026L784.483,518.572L784.483,520.017ZM802.982,519.275L785.75,519.973L785.75,518.528L802.982,517.798L802.982,519.275ZM822.342,518.251L804.249,519.215L804.249,517.736L822.342,516.726L822.342,518.251ZM842.206,516.955L823.608,518.178L823.608,516.646L842.206,515.368L842.206,516.955ZM862.713,515.353L843.472,516.863L843.472,515.274L862.713,513.691L862.713,515.353ZM937.003,509.018L863.979,515.248L863.979,513.584L937.003,507.065L937.003,509.018ZM935.22,562.52L935.297,561.729L935.319,561.82C935.388,562.107 935.648,562.3 935.932,562.3L936.086,562.28C936.425,562.198 936.63,561.855 936.546,561.513L935.662,557.945L935.848,556.021L935.965,554.824L936.667,554.877L936.694,554.878L936.696,554.879L937.431,554.898L937.431,558.907L937.233,563.311C937.227,563.458 937.293,563.584 937.373,563.694C937.278,563.8 937.204,563.929 937.199,564.083L937.189,564.345L937.255,564.525L935.569,565.223C935.245,565.359 935.092,565.727 935.225,566.051C935.327,566.296 935.564,566.442 935.811,566.442L936.054,566.395L937.114,565.956L937.052,567.343C936.873,567.159 936.625,567.056 936.387,567.156L935.871,567.369L935.868,567.369L934.704,567.849L935.22,562.52ZM929.753,547.888C929.841,547.934 929.928,547.985 930.03,547.985L930.171,547.97L932.076,547.537C932.141,547.706 932.259,547.85 932.443,547.913L932.648,547.948C932.808,547.948 932.947,547.872 933.063,547.765L933.713,554.337L927.557,548.829L929.753,547.888ZM853.251,563.717L852.78,559.444L904.988,548.032L904.997,548.025L905.104,548.356C905.191,548.623 905.44,548.793 905.707,548.793L905.903,548.764C906.234,548.655 906.417,548.299 906.311,547.965L906.189,547.588C906.281,547.638 906.373,547.69 906.481,547.69L906.617,547.676L910.811,546.761L910.811,548.851L908.981,548.133L908.489,547.94C908.17,547.814 907.797,547.975 907.671,548.299C907.542,548.623 907.703,548.991 908.029,549.117L908.522,549.31L910.811,550.208L910.811,550.599L853.251,563.717ZM847.867,563.957L847.398,559.709L851.525,559.596L851.997,563.874L847.867,563.957ZM874.116,544.657L889.321,543.95L846.005,552.947L830.184,553.502L874.116,544.657ZM760.66,522.698L763.596,522.666L763.606,522.666L782.488,522.164L782.495,522.164L802.678,521.358L802.686,521.358L821.852,520.349L821.852,553.795L760.66,555.946L760.66,522.698ZM936.731,553.613L936.728,553.613L936.094,553.565L936.914,546.004L936.969,545.502L937.161,543.724L937.307,542.374C937.33,542.165 937.23,541.993 937.086,541.862L937.431,541.713L937.431,553.631L936.731,553.613ZM927.728,547.38C927.643,547.049 927.316,546.846 926.978,546.916L926.234,547.086L926.428,546.478L926.43,546.476L926.504,546.247C926.61,545.913 926.427,545.556 926.096,545.448C925.752,545.351 925.406,545.524 925.297,545.856L925.26,545.971L925.171,545.972L924.832,546.118L924.832,545.44L924.963,545.413L926.511,544.745L926.625,544.827L926.781,544.849C927.063,544.849 927.34,544.624 927.434,544.347L927.787,544.195L927.792,544.194L928.299,543.974C928.62,543.835 928.766,543.462 928.628,543.141L928.452,542.972L928.621,542.799L928.714,542.831L928.848,542.817L929.013,542.781L929.14,542.879L929.203,542.974L929.204,542.977L929.859,543.961C929.98,544.144 930.181,544.243 930.386,544.243C930.507,544.243 930.628,544.209 930.737,544.137L930.749,544.119L932.779,544.897L932.82,545.311C932.722,545.382 932.621,545.455 932.577,545.579L932.495,545.811L932.496,545.816L932.495,545.816L932.446,545.958C932.299,545.829 932.116,545.748 931.909,545.791L929.627,546.313C929.402,546.365 929.273,546.542 929.205,546.747L927.728,547.38ZM897.401,543.566L899.569,543.115C899.412,543.295 899.327,543.528 899.432,543.761C899.516,543.952 899.691,544.057 899.881,544.098L899.884,544.196C899.988,544.431 900.22,544.57 900.46,544.57L900.72,544.513L903.094,543.443L903.099,543.442L903.524,543.249C903.678,543.179 903.787,543.052 903.846,542.905L903.883,542.896L903.986,542.767C904.1,542.864 904.234,542.933 904.382,542.933C904.486,542.933 904.592,542.908 904.689,542.854C904.995,542.683 905.104,542.3 904.936,541.993L904.918,541.961C905.03,541.916 905.135,541.859 905.203,541.766L905.317,541.968C905.433,542.176 905.648,542.292 905.868,542.292C905.974,542.292 906.081,542.265 906.177,542.211C906.484,542.04 906.59,541.654 906.42,541.35L906.175,540.915C906.289,540.777 906.331,540.623 906.305,540.446L906.752,540.245L906.877,540.39C906.663,540.528 906.515,540.751 906.568,541.014C906.632,541.313 906.894,541.518 907.189,541.518L907.317,541.506L910.811,540.779L910.811,542.446L910.7,542.438C910.369,542.554 910.195,542.913 910.309,543.245L910.371,543.423L910.373,543.426L910.373,543.427L910.468,543.692C910.506,543.8 910.582,543.878 910.663,543.947L910.563,544.036L910.445,543.83L910.341,543.65C910.166,543.343 909.78,543.247 909.476,543.417L909.356,543.574C909.157,543.385 908.876,543.303 908.638,543.442C908.331,543.613 908.225,543.999 908.395,544.303L908.497,544.483L908.499,544.484L908.499,544.487L908.781,544.982L847.245,558.328L846.775,554.082L897.401,543.566ZM874.674,516.539L892.394,515.048L892.394,515.198L891.346,515.643C891.024,515.782 890.873,516.152 891.009,516.474L891.052,516.525L888.803,517.478C888.482,517.614 888.331,517.987 888.467,518.309C888.571,518.549 888.803,518.694 889.051,518.694L889.298,518.645L891.632,517.656L891.634,517.654L892.048,517.48C892.371,517.344 892.522,516.974 892.386,516.652L892.335,516.601L892.394,516.575L892.394,519.505C892.228,519.245 891.911,519.12 891.632,519.236L891.214,519.414L888.89,520.403C888.568,520.542 888.418,520.913 888.554,521.234C888.657,521.476 888.892,521.62 889.137,521.62L889.384,521.57L891.709,520.581L892.127,520.403C892.253,520.349 892.327,520.24 892.394,520.131L892.394,525.606L892.403,525.628L892.396,525.648L892.485,525.836L892.568,526.026L892.59,526.058L892.81,526.153L892.967,526.236L896.64,526.581L896.64,526.983L895.322,527.557C895.188,527.615 895.108,527.729 895.043,527.847L894.921,527.624L894.921,527.623L894.832,527.458C894.664,527.149 894.283,527.04 893.974,527.198C893.665,527.364 893.551,527.747 893.714,528.056L893.806,528.227L893.808,528.229L893.808,528.231L894.328,529.184C894.444,529.394 894.661,529.513 894.884,529.513C894.988,529.513 895.092,529.488 895.188,529.436C895.444,529.296 895.52,529.008 895.457,528.737L895.574,528.771L895.826,528.719L896.64,528.365L896.64,528.887L896.656,528.926L896.64,528.964L896.64,529.118L894.308,530.136C894.13,530.214 894.024,530.366 893.972,530.538L891.84,531.469C891.518,531.61 891.373,531.983 891.511,532.302L891.594,532.4L889.184,533.455C888.865,533.595 888.719,533.969 888.858,534.29C888.964,534.528 889.197,534.669 889.439,534.669L889.694,534.617L892.147,533.544L892.148,533.542L892.582,533.353C892.903,533.212 893.049,532.841 892.911,532.52L892.813,532.426L894.78,531.568L894.821,531.526L894.919,531.506C895.094,531.429 895.199,531.278 895.25,531.107L896.64,530.5L896.64,531.625C896.64,531.805 896.72,531.963 896.842,532.079L896.296,532.32C895.974,532.46 895.831,532.834 895.972,533.153C896.076,533.39 896.308,533.531 896.551,533.531L896.648,533.51C896.652,533.61 896.711,533.687 896.756,533.77C896.707,533.86 896.64,533.941 896.64,534.051L896.64,535.049C896.64,535.329 896.843,535.525 897.095,535.609L895.888,536.143C895.567,536.283 895.423,536.657 895.564,536.976C895.668,537.213 895.9,537.354 896.143,537.354L896.397,537.3L896.695,537.168L896.792,537.35C896.711,537.456 896.64,537.574 896.64,537.718L896.64,538.775L896.474,538.778L896.039,538.971L893.606,540.055C893.287,540.198 893.143,540.571 893.284,540.89C893.383,541.108 893.591,541.233 893.813,541.252L893.816,541.365C893.922,541.602 894.152,541.741 894.394,541.741L894.651,541.687L896.64,540.8L896.64,542.34L874.674,543.362L874.674,516.539ZM823.118,520.283L823.863,520.245L823.867,520.243L823.872,520.242L845.66,518.83L845.693,518.828L867.709,517.124L867.713,517.124L873.408,516.645L873.408,543.507L823.118,553.633L823.118,520.283ZM936.295,540.826C936.323,540.728 936.371,540.635 936.348,540.529L936.21,540.328L936.82,540.195L936.991,540.077C937.167,540.076 937.316,539.993 937.431,539.871L937.431,540.336L936.295,540.826ZM936.006,542.609L935.677,542.484L935.676,542.448L935.772,542.428L936.038,542.314L936.006,542.609ZM931.953,543.224L931.291,542.236L931.27,542.222L931.524,542.112L931.538,542.184L931.622,542.31L931.624,542.31L931.625,542.315L932.295,543.304L932.397,543.394L931.953,543.224ZM924.832,543.695L925.571,543.534C925.915,543.459 926.13,543.123 926.056,542.782C926.036,542.688 925.958,542.634 925.903,542.562L926.731,542.381L926.749,542.369L926.84,542.359L926.914,542.343L926.896,542.4L926.894,542.4L926.662,543.126L926.676,543.296L924.832,544.092L924.832,543.695ZM924.832,526.754L924.832,524.804L937.431,523.941L937.431,527.963L924.832,526.754ZM937.431,531.828L937.045,531.684C936.711,531.563 936.353,531.726 936.229,532.055C936.108,532.384 936.274,532.747 936.6,532.871L937.062,533.044L937.285,533.084L937.431,533.039L937.431,534.021L937.24,534.151L936.677,533.939L936.672,533.94L936.664,533.934L936.522,533.937L936.427,533.848L936.199,533.761C936.101,533.723 936.007,533.758 935.911,533.769C935.965,533.621 935.97,533.454 935.903,533.299C935.805,533.072 935.586,532.98 935.355,532.966L935.411,532.891L935.868,531.526L935.95,531.281C936.061,530.95 935.881,530.591 935.549,530.48C935.223,530.376 934.859,530.552 934.748,530.88L934.666,531.125L934.209,532.49C934.112,532.78 934.263,533.063 934.517,533.211L934.397,533.263C934.328,533.094 934.206,532.952 934.018,532.893L933.883,532.905C933.722,532.834 933.541,532.818 933.371,532.898C933.054,533.044 932.913,533.42 933.059,533.739L933.1,533.829L931.75,534.418L931.513,533.121L932.582,532.653L932.586,532.649L933.094,532.426C933.413,532.285 933.558,531.911 933.418,531.593L933.391,531.568C933.525,531.493 933.639,531.386 933.69,531.229L934.137,529.864L934.179,529.737L934.793,529.795L935.334,529.846L935.606,530.398C935.717,530.623 935.942,530.752 936.175,530.752L936.386,530.703L936.474,530.881C936.506,531.103 936.612,531.307 936.838,531.39L937.166,531.51L937.169,531.513L937.431,531.612L937.431,531.828ZM935.524,539.182C935.183,539.256 934.966,539.592 935.04,539.933L935.103,540.036L934.961,540.186L934.763,540.229L934.842,539.998L934.924,539.76C935.037,539.431 934.862,539.07 934.53,538.956L934.404,538.964L934.399,538.843L934.246,538.509L934.756,538.288L934.926,538.44L935.134,538.474C935.396,538.474 935.641,538.311 935.732,538.049L935.799,537.856L935.798,537.836L936.294,537.621L936.608,537.484L936.576,537.569L936.577,537.651L936.572,537.661L936.538,537.723L936.54,537.726L936.539,537.729L936.4,538.992L935.524,539.182ZM925.426,528.911L927.494,529.685C927.591,529.854 927.752,529.955 927.935,529.985C927.918,530.098 927.893,530.214 927.943,530.326L927.987,530.378L925.537,531.454L925.36,531.639L925.22,531.565C925.202,531.328 925.098,531.106 924.862,531.016L924.832,531.005L924.832,528.855L925.426,528.911ZM931.278,531.839L931.106,530.905C931.218,531.125 931.437,531.259 931.669,531.259L931.936,531.199C932.253,531.051 932.391,530.675 932.243,530.359L931.85,529.518L932.011,529.533L932.887,529.615L932.488,530.833C932.436,530.993 932.458,531.156 932.523,531.296L932.078,531.491L932.074,531.49L931.278,531.839ZM932.903,537.71L932.774,537.843L932.256,536.325L933.083,536.154C933.095,536.399 933.201,536.631 933.445,536.724L933.714,536.825L933.937,536.865C934.194,536.865 934.434,536.709 934.53,536.454C934.615,536.226 934.525,536.008 934.371,535.837L934.571,535.7L934.75,536.076C934.837,536.257 935.005,536.356 935.185,536.398L935.141,536.526L935.154,536.734L932.903,537.71ZM927.485,538.019L927.53,537.876C927.594,537.675 927.528,537.488 927.412,537.331L930.575,536.674L930.201,536.837L927.485,538.019ZM924.832,539.752L924.928,539.776L924.877,539.837L924.844,539.936C924.807,540.05 924.847,540.149 924.875,540.251L924.832,540.211L924.832,539.752ZM928.86,531.375L928.868,531.372L929.364,532.677L929.214,532.742C928.921,532.872 928.801,533.197 928.886,533.498L926.678,532.334L928.86,531.375ZM929.723,533.905L929.817,533.863L929.877,534.02L929.676,533.914L929.723,533.905ZM926.947,536.133C926.881,535.988 926.761,535.867 926.6,535.806L925.789,535.5L925.67,535.503L925.186,534.774L925.186,534.772L925.213,534.683L925.458,534.743C925.579,534.743 925.703,534.708 925.811,534.637C926.1,534.441 926.177,534.048 925.984,533.756L925.61,533.199L929.981,535.503L926.947,536.133ZM926.106,539.787L926.047,539.813C925.981,539.64 925.863,539.492 925.673,539.431L925.653,539.433C925.74,539.242 925.765,539.03 925.641,538.843L925.349,538.397L925.813,538.186C925.667,538.391 925.608,538.648 925.752,538.872L925.814,538.969L925.82,538.972L925.821,538.976L926.303,539.703L926.108,539.787L926.106,539.787ZM925.659,536.866L925.677,536.809L925.735,536.832L925.659,536.866ZM935.356,534.387L934.985,534.464C934.769,534.509 934.636,534.672 934.56,534.865C934.472,534.778 934.368,534.737 934.242,534.713L935.057,534.357L935.386,534.214L935.391,534.393L935.356,534.387ZM937.361,535.551L937.025,536.412L936.997,536.425C936.883,536.301 936.749,536.237 936.581,536.23L936.585,536.219L936.669,535.974C936.738,535.776 936.678,535.587 936.568,535.427L936.585,535.425L936.868,535.365L937.361,535.551ZM934.042,544.787L934.093,544.723C934.174,544.512 934.104,544.31 933.978,544.141L933.741,541.748L933.789,541.756L934.011,541.685L934.014,541.791L934.088,541.956L934.09,541.959L934.09,541.96L934.383,542.597L934.335,542.648C934.209,542.975 934.375,543.341 934.701,543.464L935.173,543.645L935.425,543.741C935.495,543.861 935.587,543.973 935.727,544.026L935.847,544.071L935.756,544.915L934.092,545.294L934.042,544.787ZM926.464,541.145L925.855,541.278L926.61,540.95L926.612,540.948L927.112,540.732C927.408,540.605 927.531,540.277 927.444,539.977C927.612,539.771 927.673,539.499 927.522,539.266L927.606,539.29L927.859,539.238L930.705,538L931.217,537.777L931.281,537.711L931.953,539.477C931.956,539.667 932.031,539.824 932.183,539.941L932.248,540.023L930.896,540.606C930.753,540.405 930.536,540.267 930.282,540.319L929.026,540.591C928.871,540.625 928.753,540.724 928.665,540.841C928.536,540.771 928.388,540.729 928.232,540.762L926.573,541.123L926.525,541.156L926.464,541.145ZM894.61,524.864L894.61,514.862L937.431,511.262L937.431,521.891L894.61,524.864ZM909.495,528.793C909.587,528.783 909.679,528.769 909.763,528.717C910.062,528.534 910.154,528.143 909.971,527.846L909.807,527.58L910.077,527.461L910.173,527.47C910.135,527.629 910.156,527.803 910.25,527.953L910.351,528.116L910.811,528.854L910.811,529.385L909.495,528.793ZM909.092,539.737L909.237,539.812L908.969,539.867L909.092,539.737ZM908.321,528.264L908.222,528.219L906.72,527.542L906.692,527.495L906.69,527.494L906.689,527.49L906.59,527.327L906.521,527.276L906.624,527.137L907.465,527.216L907.728,527.646C907.846,527.839 908.054,527.948 908.267,527.948L908.505,527.88L908.892,528.509L908.916,528.532L908.321,528.264ZM897.86,532.917L897.984,533.142L897.906,533.08L897.906,533.049L897.854,532.924L897.86,532.917ZM903.672,531.202C903.351,531.343 903.208,531.716 903.348,532.035L903.419,532.118L901.149,533.12C901.04,533.107 900.931,533.081 900.824,533.128L900.393,533.319L899.187,533.853C899.069,533.905 899.005,534.01 898.941,534.111C898.822,534.091 898.7,534.068 898.581,534.12L898.578,534.121L898.34,533.683C898.459,533.797 898.602,533.877 898.764,533.877C898.868,533.877 898.974,533.853 899.07,533.798C899.377,533.63 899.486,533.245 899.318,532.938L898.781,531.966L898.69,531.798C898.602,531.636 898.454,531.538 898.289,531.496L898.235,531.397L898.232,531.395L898.141,531.229C898.088,531.133 897.991,531.095 897.906,531.039L897.906,530.542L898.227,531.118C898.343,531.326 898.558,531.442 898.781,531.442C898.885,531.442 898.991,531.417 899.09,531.363C899.394,531.192 899.503,530.806 899.335,530.5L898.801,529.543L898.797,529.541L898.707,529.377C898.549,529.086 898.2,528.991 897.906,529.121L897.906,528.964L897.89,528.926L897.906,528.887L897.906,527.814L897.973,527.784L897.974,527.783L898.395,527.602C898.717,527.463 898.865,527.092 898.727,526.771L898.554,526.604L899.96,526.508L901.64,526.666L901.447,526.751C901.287,526.674 901.105,526.651 900.93,526.726L900.119,527.08C899.797,527.221 899.651,527.594 899.79,527.913C899.894,528.153 900.126,528.294 900.371,528.294L900.623,528.242L901.04,528.06C901.124,528.1 901.211,528.138 901.306,528.138L901.56,528.086L902.222,527.797C902.217,527.912 902.204,528.029 902.265,528.136L902.362,528.304L902.364,528.306L902.364,528.309L902.636,528.775L901.969,529.068C901.65,529.206 901.504,529.58 901.645,529.901L901.708,529.975L901.709,530.035L901.761,530.095L901.701,530.121L901.111,530.381L901.029,530.466L900.989,530.393C900.819,530.089 900.438,529.98 900.126,530.148C899.849,530.304 899.762,530.637 899.872,530.927L899.36,531.152C899.038,531.293 898.895,531.667 899.036,531.986C899.115,532.166 899.275,532.266 899.45,532.316L899.456,532.572C899.56,532.809 899.793,532.95 900.035,532.95L900.289,532.896L901.395,532.409C901.716,532.268 901.86,531.894 901.719,531.575L901.661,531.52L901.76,531.477L901.763,531.55C901.865,531.785 902.112,531.922 902.362,531.922L902.377,531.918L902.378,531.919L902.513,531.891L902.629,531.867L902.63,531.866L902.636,531.865L903.054,531.679C903.373,531.538 903.517,531.162 903.376,530.843L903.217,530.693L903.934,530.378L903.947,530.401C904.058,530.593 904.249,530.69 904.446,530.69C904.563,530.69 904.681,530.658 904.793,530.591C905.032,530.452 905.086,530.163 905.029,529.897L905.111,529.861C905.232,529.986 905.385,530.072 905.554,530.072C905.665,530.072 905.777,530.042 905.878,529.983C906.177,529.805 906.276,529.417 906.098,529.115L906.024,528.99L906.019,528.771C905.958,528.63 905.841,528.539 905.713,528.475L905.835,528.53L905.876,528.598C905.994,528.798 906.204,528.907 906.42,528.907L906.577,528.864L907.523,529.291L907.565,529.403L905.275,530.416L905.143,530.553L903.672,531.202ZM905.601,539.376L905.578,539.358C905.821,539.187 905.943,538.887 905.816,538.606C905.673,538.286 905.297,538.143 904.98,538.289L904.558,538.479L904.553,538.479L903.481,538.96C903.318,538.906 903.139,538.909 902.98,538.999C902.673,539.169 902.565,539.555 902.733,539.859L902.742,539.876L902.745,539.985L902.902,540.167L903.132,540.58C902.968,540.523 902.788,540.523 902.626,540.616C902.363,540.762 902.286,541.064 902.363,541.34L902.117,541.291L897.906,542.166L897.906,539.659L898.373,539.451L898.806,539.258C899.125,539.115 899.268,538.741 899.127,538.423C898.985,538.106 898.616,537.963 898.299,538.101C898.392,537.921 898.427,537.719 898.326,537.527L898.123,537.149L898.788,536.853C898.708,537.029 898.684,537.224 898.784,537.406L898.877,537.577L898.878,537.579L899.412,538.561C899.528,538.773 899.743,538.892 899.968,538.892C900.072,538.892 900.173,538.868 900.27,538.816C900.579,538.647 900.69,538.264 900.524,537.958L899.99,536.976L899.988,536.975L899.988,536.974L899.891,536.798C899.805,536.639 899.659,536.538 899.495,536.495C899.743,536.327 899.868,536.023 899.743,535.737C899.624,535.466 899.334,535.363 899.054,535.412L898.969,535.333L899.095,535.277C899.207,535.227 899.265,535.125 899.329,535.031L899.444,535.064L899.701,535.01L900.908,534.476L901.294,534.305L901.397,534.335L901.652,534.281L903.986,533.25L903.991,533.249L904.409,533.064C904.728,532.923 904.872,532.547 904.731,532.228L904.651,532.152L905.345,531.846C905.454,532.069 905.674,532.206 905.908,532.206L906.163,532.151L908.482,531.126L908.487,531.125L908.649,531.053C908.571,531.234 908.549,531.433 908.657,531.615L908.756,531.78L908.767,531.791L908.769,531.8L908.796,531.842L908.803,531.846L908.749,531.919C908.548,531.773 908.297,531.711 908.076,531.845C907.775,532.025 907.678,532.414 907.856,532.713L907.955,532.878L907.955,532.881L908.517,533.818C908.601,533.959 908.737,534.035 908.882,534.079L909.224,534.649C909.342,534.847 909.553,534.956 909.768,534.956C909.879,534.956 909.99,534.926 910.094,534.866C910.393,534.686 910.49,534.298 910.312,533.996L910.244,533.884C910.521,533.698 910.615,533.331 910.44,533.042L909.872,532.094L909.77,531.926L909.731,531.898C909.884,531.738 909.927,531.529 909.871,531.313L909.844,531.133L909.745,530.967C909.611,530.74 909.361,530.679 909.119,530.712C909.248,530.535 909.316,530.322 909.221,530.107L909.12,530.01L910.295,530.539C910.333,530.75 910.437,530.943 910.653,531.024L910.811,531.084L910.811,531.341C910.706,531.344 910.598,531.33 910.502,531.387C910.203,531.57 910.109,531.961 910.29,532.258L910.799,533.094L910.811,533.105L910.811,535.006C910.676,534.97 910.532,534.955 910.396,535.015L909.983,535.198L909.001,535.637C908.835,535.583 908.653,535.585 908.489,535.683C908.188,535.861 908.089,536.249 908.264,536.55L908.282,536.581L908.284,536.649L908.406,536.791L908.924,537.673C909.043,537.873 909.253,537.985 909.471,537.985C909.58,537.985 909.691,537.958 909.793,537.898C910.094,537.72 910.193,537.332 910.017,537.03L909.803,536.665L910.21,536.483C910.162,536.647 910.17,536.825 910.262,536.983L910.361,537.151L910.363,537.153L910.364,537.156L910.805,537.892C910.706,538.051 910.659,538.236 910.727,538.425L910.789,538.598L910.792,538.601L910.791,538.606L910.811,538.659L910.811,539.195L904.731,536.074C904.971,535.883 905.069,535.555 904.914,535.279L904.36,534.305L904.357,534.304L904.258,534.132C904.085,533.828 903.697,533.722 903.395,533.897C903.091,534.07 902.987,534.456 903.161,534.76L903.256,534.928L903.257,534.933L903.342,535.084L902.53,535.445L902.405,535.577L902.223,535.581L901.19,536.041C900.871,536.184 900.727,536.558 900.868,536.877C900.974,537.112 901.204,537.253 901.447,537.253L901.704,537.198L902.738,536.739L902.822,536.649L903.004,536.611L903.004,536.612L903.073,536.647L903.084,536.739L903.183,536.914L903.734,537.891C903.85,538.096 904.066,538.212 904.285,538.212C904.392,538.212 904.498,538.185 904.597,538.13C904.805,538.012 904.876,537.795 904.874,537.572L907.087,538.708L905.601,539.376ZM904.838,539.742C904.801,539.835 904.814,539.925 904.824,540.026C904.602,540.218 904.507,540.524 904.654,540.789L904.658,540.796L904.575,540.779L904.537,540.787C904.549,540.664 904.56,540.537 904.496,540.421L904.262,540L904.838,539.742ZM934.866,553.125L934.265,547.041L935.557,546.748L934.866,553.125ZM935.531,570.195L934.484,570.141L934.491,570.077C934.506,569.926 934.447,569.792 934.368,569.674L935.233,569.318L935.747,569.105C935.945,569.023 936.046,568.845 936.09,568.65L936.353,568.541L936.355,568.539L936.867,568.328L937.014,568.182L936.924,570.188L935.531,570.195ZM743.341,576.687L743.341,509.133L743.995,508.862L747.052,508.393L751.363,508.024L755.722,507.867L758.812,507.965L759.394,508.139L759.394,576.632L743.341,576.687ZM740.312,607.622L740.312,616.397L653.384,611.007L740.312,607.622ZM635.275,610.445L634.728,606.506L634.714,606.481L634.718,606.457L634.598,606.282L634.465,606.088L634.218,606.02L634.014,605.965L633.989,605.979L633.964,605.974L609.983,611.217L609.983,584.754L620.502,584.688L620.502,603.581L620.506,603.59L620.502,603.601C620.506,603.72 620.576,603.811 620.637,603.904L620.692,604.03C620.807,604.143 620.962,604.214 621.135,604.214L621.155,604.214L740.312,600.714L740.312,606.354L640.784,610.23L635.275,610.445ZM633.566,607.357L634.002,610.495L616.015,611.194L633.566,607.357ZM608.717,592.13L608.717,611.479L564.514,613.199L608.717,592.13ZM214.085,589.76L214.085,588.979L305.106,598.674L305.106,601.569L214.085,589.76ZM608.717,584.751L608.717,590.478L483.742,587.32L439.412,586.2L439.412,582.922L608.717,584.751ZM450.18,502.528L463.335,581.568L451.899,581.606L438.336,501.126L450.18,502.528ZM459.662,503.653L472.505,581.538L464.62,581.564L451.491,502.683L459.662,503.653ZM485.543,506.717L497.553,581.454L487.141,581.489L474.769,505.44L485.543,506.717ZM526.256,579.772L526.298,580.043L518.187,581.385L516.379,581.391L526.256,579.772ZM526.494,581.296L526.503,581.358L526.115,581.359L526.494,581.296ZM515.419,510.255L526.061,578.519L512.768,580.699L501.348,508.59L515.419,510.255ZM542.808,582.773L542.777,582.572L546.61,582.559L560.531,582.512L560.599,582.965L542.808,582.773ZM560.19,580.247L560.341,581.247L554.219,581.267L560.19,580.247ZM542.583,581.306L542.182,578.696L559.525,575.822L560.002,578.997L546.558,581.294L542.583,581.306ZM559.304,574.35L559.336,574.568L541.99,577.442L541.952,577.196L559.304,574.35ZM550.294,514.384L559.116,573.096L541.76,575.943L531.983,512.217L550.294,514.384ZM508.992,451.787L584.007,465.213C583.855,465.349 583.75,465.527 583.781,465.744L591.278,517.965L567.494,515.148L561.813,476.669C561.761,476.323 561.43,476.076 561.096,476.135C560.749,476.184 560.51,476.509 560.561,476.852L566.313,515.811L574.491,571.207L574.491,571.209L574.492,571.214L574.491,571.217L574.492,571.219L574.706,572.656L574.706,572.657L574.707,572.661L574.706,572.666L574.708,572.67L575.349,577.003L575.71,579.456L575.712,579.473L575.712,579.474L575.846,580.376L575.848,580.393L575.849,580.393L576.073,581.917L576.252,583.134L561.88,582.979L561.701,581.783L561.345,579.421L560.68,574.998L560.679,574.992L560.68,574.988L560.678,574.986L560.46,573.526L560.459,573.522L560.46,573.519L560.459,573.516L551.474,513.719L545.653,474.963C545.601,474.619 545.294,474.367 544.933,474.431C544.587,474.483 544.35,474.805 544.402,475.151L550.1,513.088L531.784,510.92L527.794,484.911C527.742,484.567 527.404,484.32 527.072,484.382C526.726,484.434 526.491,484.758 526.543,485.104L530.606,511.588L540.606,576.768L540.606,576.773L540.607,576.775L540.836,578.269L540.837,578.274L540.836,578.276L540.837,578.278L541.415,582.038L541.525,582.759L527.981,582.613L527.869,581.892L527.868,581.891L527.869,581.889L527.646,580.468L527.646,580.462L527.644,580.46L527.409,578.947L527.408,578.944L527.409,578.943L527.408,578.941L516.598,509.587L512.479,483.17C512.426,482.824 512.104,482.589 511.758,482.641C511.412,482.695 511.175,483.019 511.229,483.363L515.218,508.958L501.142,507.292L498.677,491.714C498.623,491.37 498.319,491.137 497.953,491.187C497.606,491.241 497.372,491.565 497.426,491.911L499.966,507.963L511.617,581.526L511.618,581.527L511.617,581.528L511.618,581.529L511.714,582.137L511.714,582.138L511.762,582.438L498.973,582.299L498.922,581.983L486.719,506.044L484.167,490.173C484.112,489.832 483.803,489.599 483.44,489.649C483.096,489.706 482.861,490.03 482.916,490.376L485.334,505.418L474.558,504.141L473.494,497.597C473.437,497.253 473.133,497.025 472.767,497.072C472.421,497.129 472.189,497.455 472.243,497.799L473.383,504.815L485.966,582.159L473.872,582.028L460.836,502.977L459.721,496.219C459.661,495.875 459.325,495.651 458.991,495.697C458.647,495.754 458.413,496.081 458.469,496.427L459.448,502.354L450.801,501.328L437.646,499.77L384.021,493.419L508.992,451.787ZM254.503,336.197L254.538,335.543L255.042,334.582L255.043,334.577L347.869,158.618L347.532,165.528L254.39,338.327L254.503,336.197ZM232.932,329.997L253.537,334.722L253.351,335.077L253.34,335.193L253.279,335.336L253.277,335.377L232.639,330.681L232.932,329.997ZM315.221,135.012L232.579,327.605L232.695,325.451L315.555,128.385L315.221,135.012ZM625.782,263.196L316.504,134.741L316.957,125.752L625.969,256.945L625.782,263.196ZM692.486,290.9L627.034,263.716L627.22,257.476L695.085,286.288L692.486,290.9ZM349.229,156.726L691.045,296.536L690.287,300.648L690.3,300.707L690.277,300.762L690.277,301.851L348.813,165.277L349.229,156.726ZM254.15,333.562L233.44,328.812L316.183,135.977L626.145,264.716L691.895,292.023L691.865,292.07L691.279,295.263L348.88,155.215L348.77,155.215L348.67,155.168L348.565,155.207L348.43,155.216L348.306,155.304L348.169,155.434L348.081,155.507L254.15,333.562ZM774.971,443.264L773.776,443.583L773.776,413.371L773.737,413.275L773.744,413.17L773.647,413.059L773.493,412.883L773.281,412.795L773.143,412.737L773.047,412.777L772.943,412.77L732.426,426.329C732.24,426.36 732.081,426.488 731.996,426.668L731.995,426.671L731.931,426.907L731.939,426.928L731.929,426.951L731.929,454.908L731.14,455.124L731.14,426.447L774.971,411.618L774.971,443.264ZM831.086,428.425L829.261,428.902L829.261,395.22L829.221,395.124L829.229,395.022L829.13,394.906L828.987,394.736L828.764,394.643L828.628,394.587L828.532,394.627L828.43,394.619L777.94,411.118L777.864,411.183L777.692,411.271L777.644,411.372L777.566,411.539L777.508,411.662L777.517,411.691L777.505,411.719L777.505,442.584L776.236,442.925L776.236,411.194L831.086,393.076L831.086,428.425ZM901.385,410.228L898.7,410.917L898.7,373.002L898.661,372.91L898.67,372.809L898.571,372.694L898.419,372.515L898.21,372.429L898.066,372.369L897.974,372.408L897.874,372.399L834.703,392.591L834.607,392.673L834.487,392.732L834.412,392.838L834.323,393.023L834.268,393.121L834.279,393.158L834.263,393.195L834.263,427.594L832.352,428.094L832.352,392.663L901.385,370.357L901.385,410.228ZM984.402,389.117L984.401,389.118L984.399,389.117L950.843,397.609L920.289,405.386L920.287,405.386L907.661,408.62L907.661,371.08L989.204,345.566L989.204,387.914L984.402,389.117ZM892.377,412.537L866.8,419.132L843.299,425.232L843.299,425.233L843.296,425.232L836.454,427.021L836.454,393.767L897.434,374.316L897.434,411.242L892.377,412.537ZM821.645,430.895L801.649,436.162L801.646,436.165L783.143,441.076L779.659,442.008L779.659,412.256L827.995,396.497L827.995,429.234L821.645,430.895ZM765.987,445.668L765.984,445.668L750.045,449.968L735.215,454.006L735.214,454.006L734.038,454.328L734.038,427.467L772.51,414.623L772.51,443.922L765.987,445.668ZM721.39,457.802L721.379,457.81L721.37,457.809L711.474,460.892L711.474,437.028L728.274,429.732L728.274,455.912L721.39,457.802ZM703.539,444.871L707.357,440.574L707.357,462.177L703.539,463.783L703.539,444.871ZM737.129,520.523L726.222,520.173L726.222,518.736L737.129,519.102L737.129,520.523ZM742.075,520.576L738.395,520.549L738.395,519.127L742.075,519.157L742.075,520.576ZM740.312,587.478L621.768,588.993L621.768,584.303L740.312,583.631L740.312,587.478ZM577.532,583.148L577.431,582.456L600.526,582.381L600.637,583.158L597.678,583.175L597.563,583.224C597.442,583.25 597.319,583.277 597.234,583.361L577.532,583.148ZM591.464,519.261L598.27,566.676L575.648,570.386L567.685,516.445L591.464,519.261ZM577.244,581.19L577.187,580.802L599.737,576.896L600.344,581.115L577.244,581.19ZM598.653,569.339L599.082,572.327L576.505,576.18L576.048,573.086L598.653,569.339ZM598.45,567.931L598.472,568.083L575.863,571.831L575.834,571.64L598.45,567.931ZM599.261,573.579L599.424,574.714L576.867,578.63L576.69,577.431L599.261,573.579ZM647.238,558.643L615.882,563.785L609.922,521.447L647.238,525.866L647.238,558.643ZM647.238,568.67L647.238,580.959L618.313,581.054L617.299,573.855L647.238,568.67ZM647.238,560.004L616.076,565.166L616.059,565.041L647.238,559.928L647.238,560.004ZM647.238,564.103L616.665,569.324L616.254,566.422L647.238,561.289L647.238,564.103ZM647.238,566.417L616.994,571.666L616.841,570.576L647.238,565.386L647.238,566.417ZM618.596,583.055L618.492,582.32L647.871,582.223L709.415,582.54L618.596,583.055ZM740.312,592.809L621.768,595.2L621.768,590.568L740.312,589.009L740.312,592.809ZM740.312,598.962L621.768,602.363L621.768,596.886L740.312,594.437L740.312,598.962ZM602.286,467.2L601.641,462.612L690.277,479.137L690.277,482.95L602.286,467.2ZM505.542,382.756L515,445.323L508.704,445.358L499.105,382.362L505.542,382.756ZM381.511,492.203L381.51,492.203L381.511,492.201L381.439,491.798L381.439,491.797L370.339,428.006L497.85,382.535L507.535,446.091L508.238,450.703L381.629,492.881L381.511,492.203ZM586.009,464.285L509.502,450.592L508.897,446.623L515.672,446.585L584.918,459.493L585.035,459.503C585.334,459.503 585.601,459.29 585.658,458.986C585.722,458.642 585.495,458.311 585.151,458.247L518.226,445.772L534.687,440.164L691.495,471.085L690.341,473.457L690.333,473.6L690.277,473.734L690.277,477.848L601.455,461.288L601.449,461.246C601.4,460.898 601.066,460.68 600.732,460.707C600.386,460.757 600.146,461.078 600.195,461.424L600.262,461.916L600.266,461.923L601.097,467.825L601.096,467.832L608.555,520.805L608.554,520.811L614.718,564.604L614.722,564.611L614.722,564.612L614.721,564.617L614.723,564.619L614.916,565.987L614.917,565.996L614.916,566.001L614.919,566.006L615.501,570.14L615.499,570.144L615.829,572.49L615.96,573.425L615.963,573.431L615.965,573.444L615.965,573.446L617.139,581.778L617.32,583.063L616.637,583.066C616.417,583.068 616.256,583.198 616.143,583.367L609.381,583.296C609.266,583.181 609.109,583.111 608.934,583.111L608.932,583.111L601.913,583.151L601.699,581.657L600.895,576.073L600.893,576.054L600.893,576.053L600.762,575.143L600.759,575.125L600.759,575.123L600.421,572.757L600.418,572.74L599.812,568.519L599.812,568.516L599.811,568.509L599.812,568.504L599.81,568.502L599.609,567.109L599.608,567.104L599.609,567.1L599.607,567.096L592.646,518.6L585.032,465.566L584.92,465.377L585.787,465.532L585.898,465.542C586.2,465.542 586.466,465.326 586.521,465.02C586.583,464.676 586.353,464.347 586.009,464.285ZM483.847,588.589L606.691,591.694L561.345,613.307L446.314,604.059L483.847,588.589ZM468.38,593.383L468.385,593.371L468.385,588.728L480.453,588.616L468.278,593.634C468.318,593.556 468.381,593.491 468.385,593.398L468.38,593.383ZM456.469,594.168L467.368,594.009L456.469,598.502L456.469,594.168ZM444.266,599.74L453.929,599.549L444.266,603.531L444.266,599.74ZM413.989,592.324L455.203,594.15L455.203,598.204L413.989,595.711L413.989,592.324ZM467.119,592.71L424.827,590.921L424.827,587.579L467.119,588.717L467.119,592.71ZM305.776,597.47L224.597,588.823L423.561,587.328L423.561,590.903L413.348,591.029C413.258,591.03 413.195,591.093 413.117,591.128L413.077,591.145L412.935,591.204L412.907,591.218C412.84,591.286 412.83,591.387 412.799,591.479L412.795,591.487L412.723,591.635L412.728,591.649L412.723,591.662L412.723,595.685L402.28,595.858L402.262,595.866L305.776,597.47ZM742.075,576.693L741.271,576.696L741.259,576.696L740.93,576.704C740.834,576.706 740.767,576.771 740.687,576.811L740.495,576.895L740.398,577.129L740.312,577.337L740.312,581.434L648.504,580.96L648.504,561.153L742.075,557.867L742.075,576.693ZM716.286,518.053L724.956,518.67L724.956,520.11L716.286,519.521L716.286,518.053ZM708.86,517.1L715.02,517.928L715.02,519.391L708.86,518.597L708.86,517.1ZM702.95,516.453L702.906,516.411L702.95,516.367L702.95,516.453ZM704.216,515.918L707.594,516.857L707.594,518.332L704.216,517.437L704.216,515.918ZM706.466,521.597L706.503,521.6L706.504,521.6L717.461,522.327L717.48,522.328L717.482,522.329L730.821,522.747L730.836,522.747L742.075,522.829L742.075,556.599L648.504,559.886L648.504,526.011L648.507,526.011L648.571,526.009L699.799,520.769L706.466,521.597ZM692.542,519.1L692.697,519.154L692.784,519.219L695.599,519.924L648.505,524.742L647.945,524.676L609.742,520.152L602.471,468.519L690.277,484.237L690.277,516.978L690.29,517.008L690.283,517.042L690.382,517.231L690.492,517.438L690.507,517.466L690.511,517.467L690.514,517.473L692.542,519.1ZM707.503,509.889L707.483,509.901L707.463,509.899L697.822,512.287L697.787,512.313L697.742,512.312L692.255,514.478L692.14,514.589L692.001,514.664L691.543,515.218L691.543,473.879L692.98,470.926L698.284,467.367L701.692,465.932L702.149,465.739L703.15,465.319L707.842,463.346L708.175,463.243L708.18,463.242L708.677,463.085L708.687,463.084L710.107,462.643L710.111,462.639L711.029,462.354L720.925,459.272L720.925,507.43L707.503,509.889ZM983.922,466.97L892.441,480.68L866.865,484.562L866.864,484.563L866.862,484.562L821.709,491.489L783.21,497.483L783.207,497.483L766.051,500.186L735.282,505.094L735.28,505.094L722.191,507.213L722.191,458.896L729.075,457.006L730.675,456.565L732.73,456.002L733.573,455.769L735.549,455.227L735.551,455.226L750.376,451.189L766.316,446.889L766.317,446.888L773.306,445.017L775.767,444.36L778.301,443.68L779.189,443.442L783.47,442.297L801.958,437.39L801.971,437.389L821.966,432.122L828.789,430.336L831.879,429.528L835.057,428.697L835.982,428.455L843.618,426.459L843.619,426.458L867.117,420.359L892.693,413.764L898.225,412.347L902.176,411.333L906.229,410.294L906.23,410.293L907.181,410.05L907.184,410.05L920.604,406.612L920.605,406.611L951.155,398.835L983.922,390.544L983.922,466.97ZM994.412,386.611L990.47,387.598L990.47,344.204L990.432,344.112L990.44,344.013L990.34,343.891L990.201,343.722L989.977,343.629L989.837,343.571L989.745,343.609L989.646,343.6L905.881,369.864L905.797,369.934L905.677,369.998L905.586,370.11L905.5,370.284L905.445,370.371L905.457,370.421L905.438,370.467L905.438,409.189L902.651,409.904L902.651,369.949L994.412,340.865L994.412,386.611ZM1025.82,332.42L1000.19,340.322L1000.13,340.378L999.986,340.457L999.895,340.568L999.81,340.721L999.76,340.796L999.773,340.862L999.745,340.927L999.745,385.276L995.678,386.294L995.678,340.465L1026.22,330.946L1025.82,332.42ZM1023.19,341.954L1023.19,341.984L1023.21,342.145L1023.19,342.282L1023.24,342.364L1023.27,342.452L1023.28,342.485L1045.29,373.905L1001.98,384.717L1001.98,341.601L1025.26,334.439L1023.19,341.954ZM712.198,434.745L712.223,434.72L712.237,434.717L712.29,434.706L712.292,434.704L726.885,428.279L726.892,428.277L726.893,428.276L726.919,428.264L729.874,426.963L729.874,455.472L729.54,455.563L729.54,428.336L729.49,428.216L729.488,428.084L729.4,427.999L729.232,427.838L729.021,427.75L728.907,427.703L728.786,427.753L728.655,427.755L709.666,436.024L709.584,436.11L709.472,436.157L709.421,436.279L709.332,436.491L709.286,436.6L709.287,436.602L709.286,436.605L709.286,461.57L709.132,461.617L709.132,436.095L712.198,434.745ZM709.409,343.467L709.397,343.495L709.305,343.71L709.286,343.756L709.287,343.76L709.286,343.764L709.286,365.563L709.132,365.65L709.132,343.564L709.47,343.319L709.409,343.467ZM709.52,343.295L709.483,343.31L709.533,343.274L709.52,343.295ZM729.874,354.455L729.54,354.622L729.54,330.096L729.467,329.919L729.421,329.726L729.374,329.696L729.177,329.576L728.957,329.484L728.907,329.464L728.73,329.537L728.536,329.582L712.534,341.1L727.035,330.596L729.874,328.539L729.874,354.455ZM774.971,332.206L773.776,332.788L773.776,305.369L773.715,305.221L773.697,305.062L773.625,305.005L773.441,304.859L773.227,304.77L773.143,304.735L772.996,304.796L772.836,304.815L732.255,327.253L732.225,327.291L732.139,327.349L732.054,327.505L731.96,327.683L731.934,327.73L731.945,327.769L731.929,327.807L731.929,353.426L731.14,353.821L731.14,327.673L774.971,303.274L774.971,332.206ZM831.086,305.17L829.261,306.04L829.261,275.376L829.2,275.23L829.184,275.074L829.111,275.015L828.929,274.868L828.717,274.78L828.628,274.743L828.481,274.804L828.326,274.819L777.836,302.08L777.813,302.108L777.722,302.176L777.631,302.333L777.537,302.5L777.513,302.542L777.524,302.59L777.505,302.636L777.505,330.97L776.236,331.589L776.236,302.572L831.086,272.763L831.086,305.17ZM901.385,272.008L898.7,273.262L898.7,238.66L898.64,238.516L898.625,238.363L898.551,238.302L898.37,238.153L898.161,238.066L898.066,238.027L897.92,238.087L897.77,238.101L834.599,271.469L834.58,271.492L834.507,271.556L834.39,271.723L834.295,271.879L834.276,271.909L834.288,271.969L834.263,272.028L834.263,303.656L832.352,304.566L832.352,272.079L901.385,235.373L901.385,272.008ZM984.293,233.583L984.292,233.585L984.29,233.586L950.735,249.06L950.733,249.06L920.178,263.234L907.661,269.078L907.661,235.103L989.204,192.941L989.204,231.344L984.293,233.583ZM892.268,276.266L892.266,276.266L866.689,288.284L866.685,288.288L843.188,299.406L843.186,299.406L836.454,302.613L836.454,272.586L897.434,240.447L897.434,273.853L892.268,276.266ZM821.534,309.723L821.532,309.723L801.536,319.322L801.532,319.327L783.032,328.276L783.03,328.276L779.659,329.92L779.659,303.146L827.995,277.105L827.995,306.643L821.534,309.723ZM765.873,336.644L765.872,336.644L749.931,344.481L749.93,344.483L749.929,344.483L735.099,351.842L735.096,351.842L734.038,352.372L734.038,328.282L772.51,307.056L772.51,333.406L765.873,336.644ZM721.274,358.761L721.263,358.774L721.247,358.776L711.474,364.321L711.474,344.098L728.274,332.042L728.274,355.256L721.274,358.761ZM703.539,357.184L707.357,350.081L707.357,366.658L707.302,366.689L707.275,366.724L707.231,366.736L703.539,369.567L703.539,357.184ZM707.384,430.326L707.357,430.352L707.317,430.356L697.676,435.524L697.63,435.58L697.565,435.601L692.077,440.292L692.005,440.435L691.897,440.549L691.543,441.475L691.543,387.328L693.063,381.633L698.417,375.088L701.832,372.47L702.29,372.119L703.292,371.353L707.971,367.764L708.298,367.578L708.301,367.577L708.811,367.288L710.23,366.484L711.152,365.959L720.925,360.415L720.925,424.956L707.384,430.326ZM983.922,337.411L950.804,348.089L920.25,358L920.245,358.004L892.339,367.112L892.337,367.112L866.761,375.514L843.259,383.289L843.257,383.289L821.605,390.502L801.61,397.213L801.608,397.213L783.104,403.472L783.101,403.475L765.945,409.325L750.005,414.805L750.003,414.805L735.173,419.948L735.171,419.948L722.191,424.492L722.191,359.719L729.192,356.214L730.791,355.413L732.846,354.384L732.848,354.382L733.685,353.965L733.69,353.964L735.665,352.975L735.667,352.973L750.485,345.619L750.49,345.618L766.43,337.782L766.431,337.78L773.42,334.37L775.881,333.17L778.415,331.934L779.303,331.501L783.583,329.414L783.584,329.412L802.075,320.467L802.085,320.465L822.08,310.866L822.082,310.864L828.9,307.614L831.991,306.14L835.168,304.627L836.093,304.187L843.729,300.549L843.731,300.547L867.219,289.434L867.228,289.431L892.804,277.413L892.805,277.412L898.333,274.83L902.285,272.985L906.338,271.093L907.295,270.645L920.712,264.382L951.266,250.208L951.268,250.206L983.922,235.147L983.922,337.411ZM994.412,228.967L990.47,230.766L990.47,191.071L990.411,190.929L990.398,190.779L990.322,190.714L990.147,190.567L989.926,190.475L989.837,190.438L989.698,190.495L989.545,190.509L905.779,233.912L905.763,233.931L905.705,233.992L905.565,234.166L905.47,234.302L905.458,234.318L905.469,234.398L905.438,234.473L905.438,270.116L902.651,271.417L902.651,234.703L994.412,186.847L994.412,228.967ZM1108.03,177.411L1062.44,198.027L1062.43,198.027L1021.4,216.659L1001.98,225.516L1001.98,186.384L1110.63,131.155L1110.63,176.244L1108.03,177.411ZM1117.71,173.054L1111.89,175.674L1111.89,129.169L1111.83,129.03L1111.82,128.882L1111.75,128.816L1111.57,128.665L1111.35,128.576L1111.26,128.536L1111.12,128.594L1110.97,128.605L1000.09,185.092L1000.03,185.169L999.875,185.342L999.783,185.445L999.783,185.452L999.785,185.56L999.745,185.655L999.745,226.534L995.678,228.39L995.678,186.191L1117.71,123.616L1117.71,173.054ZM1280.37,100.123L1280.37,44.495L1280.31,44.359L1280.3,44.211L1280.22,44.142L1280.05,43.991L1279.83,43.902L1279.74,43.862L1279.6,43.918L1279.45,43.929L1125.3,121.355L1125.24,121.435L1125.1,121.563L1125.03,121.627L1125.02,121.683L1125,121.826L1124.96,121.921L1124.96,169.79L1118.97,172.484L1118.97,122.968L1289.19,36.908L1289.19,96.192L1280.37,100.123ZM1158.95,154.478L1158.95,154.483L1127.16,168.799L1127.16,122.805L1279.1,46.647L1279.1,100.687L1158.95,154.478ZM692.48,364.61L692.518,364.688L697.836,369.436L697.934,369.474L698,369.543L700.814,370.79L700.814,371.656L697.589,374.127L697.551,374.193L697.485,374.229L691.998,380.937L691.958,381.071L691.877,381.175L690.299,387.085L690.31,387.168L690.277,387.248L690.277,444.906L690.329,445.03L690.357,445.188L690.361,445.223L692.389,448.744C692.45,448.847 692.535,448.926 692.633,448.98L692.635,448.983L697.955,451.87L698.053,451.894L698.091,451.924L700.814,452.658L700.814,464.928L697.73,466.227L697.687,466.27L697.621,466.283L692.185,469.931L535.204,438.976L505.607,238.991L690.277,304.771L690.277,358.417L690.318,358.517L690.312,358.628L692.339,364.426L692.48,364.61ZM703.539,269.54L707.357,259.633L707.357,271.116L707.216,271.232L707.191,271.277L707.147,271.298L703.539,275.313L703.539,269.54ZM709.288,250.915L709.286,250.92L709.286,269.527L709.132,269.652L709.132,251.064L709.286,250.909L709.286,250.91L709.288,250.915ZM729.874,253.416L729.54,253.659L729.54,231.859C729.54,231.697 729.479,231.535 729.355,231.412C729.181,231.237 728.945,231.231 728.726,231.302L729.874,230.143L729.874,253.416ZM774.971,221.126L773.776,221.973L773.776,197.364L773.699,197.177L773.645,196.978L773.607,196.956L773.4,196.838L773.179,196.746L773.143,196.731L772.965,196.805L772.757,196.862L732.2,228.145L732.193,228.15L732.176,228.163L732.154,228.201L732.04,228.397L731.939,228.561L731.941,228.572L731.946,228.625L731.929,228.665L731.929,251.922L731.14,252.496L731.14,228.915L774.971,194.948L774.971,221.126ZM831.086,181.892L829.261,183.153L829.261,155.532L829.183,155.344L829.132,155.151L829.093,155.128L828.886,155.006L828.67,154.916L828.628,154.899L828.441,154.976L828.247,155.027L777.757,193.051L777.734,193.091L777.618,193.284L777.518,193.427L777.522,193.45L777.523,193.513L777.505,193.556L777.505,219.333L776.236,220.231L776.236,193.971L831.086,152.466L831.086,181.892ZM901.385,133.766L898.7,135.586L898.7,104.32L898.624,104.138L898.576,103.944L898.533,103.918L898.332,103.798L898.114,103.707L898.066,103.687L897.882,103.763L897.691,103.811L834.52,150.351L834.494,150.394L834.387,150.563L834.286,150.695L834.29,150.732L834.282,150.815L834.263,150.86L834.263,179.694L832.352,181.016L832.352,151.513L901.385,100.411L901.385,133.766ZM990.47,73.915L990.47,37.939L990.394,37.756L990.349,37.568L990.305,37.542L990.098,37.414L989.886,37.327L989.837,37.306L989.657,37.381L989.466,37.426L905.7,97.968L905.673,98.012L905.569,98.164L905.475,98.27L905.478,98.327L905.458,98.43L905.438,98.48L905.438,131.021L902.651,132.908L902.651,99.476L994.412,32.848L994.412,71.306L990.47,73.915ZM984.207,78.061L984.204,78.062L950.648,100.519L950.646,100.522L920.093,121.092L920.089,121.093L907.661,129.513L907.661,99.144L989.204,40.336L989.204,74.754L984.207,78.061ZM892.179,140.002L892.176,140.007L866.604,157.447L866.6,157.448L843.1,173.585L843.096,173.586L836.454,178.178L836.454,151.431L897.434,106.602L897.434,136.444L892.179,140.002ZM821.444,188.558L821.441,188.563L801.45,202.492L801.447,202.493L782.943,215.482L782.94,215.485L779.659,217.809L779.659,194.059L827.995,157.735L827.995,184.028L821.444,188.558ZM765.784,227.629L765.783,227.631L765.782,227.631L749.843,239.007L749.839,239.008L735.01,249.686L735.007,249.69L734.038,250.394L734.038,229.118L772.51,199.511L772.51,222.87L765.784,227.629ZM711.474,251.197L728.274,234.38L728.274,254.582L721.187,259.728L721.178,259.743L721.155,259.75L711.474,267.722L711.474,251.197ZM983.922,181.922L950.703,199.545L950.7,199.545L920.146,215.853L892.236,230.843L892.233,230.846L866.657,244.671L843.156,257.463L843.154,257.465L843.153,257.465L821.502,269.335L821.499,269.335L801.504,280.378L782.997,290.678L782.994,290.682L765.842,300.304L765.838,300.304L749.899,309.322L749.898,309.324L749.896,309.325L735.068,317.789L735.064,317.789L722.191,325.202L722.191,260.561L729.276,255.417L729.281,255.415L730.881,254.251L732.935,252.757L732.938,252.754L733.776,252.146L735.746,250.717L735.75,250.716L750.581,240.037L750.582,240.035L766.514,228.663L766.516,228.662L773.509,223.714L775.969,221.971L778.504,220.178L779.392,219.55L783.668,216.522L783.67,216.521L802.174,203.531L802.176,203.528L822.16,189.604L822.166,189.602L828.989,184.884L832.08,182.747L835.258,180.549L835.259,180.546L836.176,179.911L836.182,179.909L843.818,174.629L843.82,174.626L867.317,158.492L867.318,158.489L892.884,141.053L892.891,141.051L898.423,137.305L902.374,134.627L906.427,131.882L907.384,131.232L920.801,122.142L920.803,122.138L951.348,101.573L951.35,101.573L983.922,79.774L983.922,181.922ZM698.495,282.817L701.917,279.008L702.374,278.499L703.376,277.386L708.052,272.182L708.39,271.904L708.392,271.902L708.393,271.902L708.897,271.486L708.901,271.485L710.322,270.317L710.323,270.313L711.239,269.557L711.242,269.556L720.925,261.583L720.925,325.956L707.27,334.869L707.244,334.908L707.198,334.923L697.557,343.43L697.524,343.497L697.458,343.539L691.971,351.254L691.943,351.377L691.872,351.476L691.543,352.893L691.543,300.822L692.384,296.259L693.092,292.403L693.314,292.01L696.536,286.293L697.263,285.005L698.495,282.817ZM267.473,344.001L267.253,341.929L268.529,342.207L267.994,348.897L267.473,344.001ZM267.425,330.885L278.472,333.484L278.911,337.236L269.812,335.205L269.764,335.214L269.723,335.193L269.506,335.261L269.311,335.321L269.181,335.506L269.056,335.685L269.064,335.734L269.043,335.774L268.631,340.934L266.664,340.505L266.567,340.522L266.459,340.492L266.325,340.566L266.126,340.676L265.994,340.864L262.224,340.015L267.425,330.885ZM279.503,331.415L278.52,322.974L280.191,323.369L279.503,331.415ZM351.053,332.168L344.24,330.519L344.87,329.799L351.697,331.467L351.053,332.168ZM291.745,300.736L293.905,301.295L293.035,310.746L291.745,300.736ZM369.866,311.672L362.494,309.717L364.958,306.91L372.397,308.915L369.866,311.672ZM307.479,274.275L310.262,275.065L309.172,286.016L307.479,274.275ZM392.1,287.449L384.095,285.101L389.094,279.403L397.234,281.855L392.1,287.449ZM326.522,242.268L330.1,243.403L328.749,255.89L326.522,242.268ZM418.774,258.389L410.053,255.521L418.651,245.721L427.593,248.781L418.774,258.389ZM350.03,202.767L354.664,204.432L352.996,218.472L350.03,202.767ZM451.377,222.869L441.837,219.297L448.125,212.134L457.748,215.928L451.377,222.869ZM355.793,175.73L446.874,211.641L440.571,218.823L357.441,187.693L357.359,187.696L357.293,187.658L357.133,187.703L356.899,187.77L356.745,187.935L356.625,188.064L356.628,188.145L356.59,188.212L354.817,203.141L349.417,201.199L349.257,201.208L349.083,201.172L349.008,201.221L348.824,201.343L348.662,201.519L348.605,201.58L348.613,201.748L348.578,201.914L352.515,222.76L352.565,222.843L352.621,222.965L352.697,223.065L352.858,223.173L352.933,223.239L417.356,245.278L408.747,255.092L332.325,229.97L332.258,229.975L332.196,229.941L332.01,229.993L331.798,230.052L331.621,230.262L331.526,230.374L331.531,230.436L331.496,230.502L330.239,242.12L325.92,240.749L325.775,240.762L325.628,240.727L325.539,240.782L325.346,240.902L325.192,241.085L325.126,241.162L325.139,241.308L325.104,241.454L328.252,260.702L328.31,260.805L328.367,260.939L328.436,261.026L328.607,261.135L328.695,261.207L387.763,279.002L382.757,284.709L312.117,263.986L312.055,263.993L312.001,263.964L311.819,264.019L311.599,264.086L311.447,264.273L311.331,264.417L311.337,264.478L311.308,264.533L310.389,273.787L306.887,272.792L306.755,272.806L306.622,272.774L306.526,272.832L306.319,272.955L306.178,273.134L306.106,273.227L306.121,273.362L306.088,273.492L308.663,291.34L308.725,291.455L308.782,291.597L308.846,291.676L309.025,291.784L309.122,291.86L363.597,306.543L361.128,309.355L295.507,291.954L295.452,291.961L295.401,291.934L295.19,291.997L295.005,292.053L294.835,292.27L294.733,292.401L294.74,292.455L294.713,292.507L294.022,300.017L291.155,299.275L291.034,299.294L290.915,299.261L290.796,299.329L290.608,299.437L290.461,299.629L290.383,299.731L290.4,299.852L290.369,299.97L292.512,316.595L292.581,316.723L292.64,316.872L292.698,316.941L292.881,317.049L292.99,317.129L343.484,329.461L342.852,330.182L281.607,315.346L281.558,315.354L281.514,315.331C281.421,315.32 281.363,315.376 281.286,315.398L281.111,315.449C281.022,315.51 280.976,315.596 280.93,315.697L280.843,315.814L280.851,315.861L280.828,315.907L280.3,322.094L277.933,321.536L277.819,321.554L277.713,321.523L277.593,321.59L277.385,321.706L277.253,321.891L277.171,322.006L277.189,322.117L277.159,322.225L278.316,332.147L268.078,329.739L355.793,175.73ZM364.209,374.896L359.602,373.947L268.759,355.212L269.835,341.756L270.246,336.6L330.26,349.995L334.184,350.872C334.199,351.02 334.253,351.167 334.372,351.276C334.493,351.39 334.647,351.444 334.8,351.444C334.97,351.444 335.141,351.375 335.265,351.239L335.608,350.866L369.799,358.506L369.74,358.559L363.408,364.248C363.148,364.481 363.126,364.881 363.361,365.141C363.484,365.279 363.657,365.351 363.83,365.351C363.981,365.351 364.132,365.297 364.253,365.188L370.586,359.498L371.314,358.845L381.546,361.133L381.684,361.148C381.973,361.148 382.236,360.947 382.302,360.653C382.379,360.312 382.164,359.973 381.823,359.896L371.274,357.537L335.529,349.55L330.552,348.437L280.28,337.2L281.499,322.933L282.027,316.751L342.925,331.503L350.271,333.283C350.272,333.452 350.333,333.62 350.467,333.744C350.589,333.855 350.742,333.909 350.895,333.909C351.066,333.909 351.237,333.84 351.363,333.704L353.102,331.81L389.596,340.72L387.916,342.23L381.133,348.324C380.873,348.556 380.851,348.957 381.086,349.216C381.209,349.355 381.383,349.426 381.555,349.426C381.706,349.426 381.857,349.372 381.978,349.263L388.761,343.17L391.083,341.083L401.941,343.737L402.092,343.754C402.376,343.754 402.636,343.561 402.708,343.272C402.789,342.93 402.582,342.589 402.243,342.505L391.061,339.773L353.039,330.49L344.8,328.477L293.821,316.027L295.215,300.873L295.906,293.367L361.182,310.678L369.07,312.769C369.053,312.958 369.096,313.148 369.246,313.286C369.367,313.398 369.521,313.452 369.674,313.452C369.844,313.452 370.015,313.383 370.141,313.247L373.775,309.287L412.856,319.821L409.009,323.279L401.706,329.839C401.447,330.072 401.424,330.472 401.659,330.732C401.783,330.871 401.956,330.942 402.129,330.942C402.28,330.942 402.431,330.888 402.552,330.779L409.854,324.219L414.311,320.213L425.868,323.329L426.034,323.351C426.313,323.351 426.568,323.165 426.645,322.883C426.736,322.545 426.536,322.198 426.2,322.107L414.31,318.902L373.734,307.965L364.909,305.586L309.971,290.777L311.575,274.664L312.494,265.418L382.787,286.039L391.281,288.53C391.24,288.74 391.266,288.957 391.434,289.112C391.555,289.223 391.709,289.278 391.862,289.278C392.033,289.278 392.203,289.209 392.329,289.073L398.581,282.261L440.581,294.913L433.781,301.021L425.875,308.126C425.616,308.358 425.594,308.759 425.828,309.018C425.952,309.157 426.125,309.229 426.298,309.229C426.449,309.229 426.6,309.174 426.721,309.065L434.627,301.961L441.997,295.34L454.325,299.056L454.508,299.083C454.78,299.083 455.032,298.907 455.114,298.633C455.215,298.299 455.025,297.945 454.691,297.844L442.023,294.026L398.566,280.935L389.07,278.074L329.565,260.147L331.417,243.027L332.673,231.417L408.749,256.424L417.935,259.445C417.856,259.676 417.868,259.93 418.059,260.106C418.18,260.218 418.333,260.272 418.487,260.272C418.657,260.272 418.828,260.203 418.954,260.067L428.902,249.229L474.187,264.721L463.289,274.51L454.669,282.255C454.409,282.488 454.387,282.888 454.622,283.148C454.746,283.286 454.918,283.358 455.092,283.358C455.243,283.358 455.393,283.304 455.514,283.195L464.135,275.45L475.557,265.189L488.739,269.698L488.944,269.733C489.206,269.733 489.454,269.567 489.543,269.305C489.656,268.974 489.481,268.615 489.15,268.501L475.616,263.873L428.92,247.898L418.66,244.387L353.827,222.208L355.979,204.08L357.751,189.163L440.534,220.163L450.507,223.897C450.367,224.147 450.373,224.458 450.594,224.661C450.715,224.773 450.868,224.827 451.021,224.827C451.192,224.827 451.363,224.758 451.489,224.622L459.305,216.105L459.335,216.024L459.426,215.91L459.424,215.777L459.42,215.543L459.323,215.333L459.266,215.21L459.154,215.169L459.07,215.089L448.175,210.794L355.747,174.352L355.55,174.356L355.308,174.36L355.125,174.502L354.966,174.627L266.56,329.847L260.702,340.131L260.69,340.224L260.633,340.307L260.66,340.462L260.7,340.687L260.845,340.874L260.937,340.994L261.062,341.028L261.113,341.063L266.003,342.165L266.119,343.257L254.561,340.674L348.446,166.495L690.277,303.216L690.277,303.428L505.04,237.446L504.945,237.451L504.799,237.431L504.736,237.416L504.652,237.466L504.497,237.539L504.404,237.572L499.031,242.399L489.557,250.907C489.298,251.14 489.276,251.541 489.511,251.8C489.634,251.939 489.807,252.01 489.98,252.01C490.131,252.01 490.282,251.956 490.403,251.847L499.877,243.338L504.374,239.298L533.942,439.081L516.247,445.109L506.716,382.06L506.621,381.895L506.512,381.708L506.29,381.599L506.13,381.521L498.4,381.049L498.332,381.073L498.264,381.056L498.21,381.089L498.148,381.086L369.412,426.993L369.269,427.122L360.256,375.376L363.952,376.137L364.08,376.15C364.374,376.15 364.639,375.945 364.701,375.645C364.77,375.302 364.55,374.968 364.209,374.896ZM108.414,589.065L108.415,589.063L108.362,588.938L212.824,588.212L212.833,588.241L212.819,588.274L212.819,588.838L108.415,589.723L108.415,589.068L108.414,589.065ZM330.549,599.723L330.352,599.809L330.147,599.895L330.112,599.914L330.031,600.108L329.931,600.289L329.941,600.325L329.928,600.356L329.928,601.167L306.372,601.644L306.372,598.726L401.657,597.142L401.657,598.375L330.549,599.723ZM374.395,601.555L395.386,601.129L395.571,601.197L395.675,601.189L396.165,601.108L396.166,601.107L401.657,600.207L401.657,601.155C401.657,601.504 401.941,601.763 402.29,601.763C402.639,601.763 402.923,601.452 402.923,601.103L402.923,597.164L443,599.713L443,604.478L443.047,604.592L443.047,604.721L443.128,604.819L443.175,604.901L443.233,604.945C443.317,605.017 443.412,605.056 443.519,605.077L443.581,605.109L550.831,613.732L518.149,615.003L374.395,601.555ZM1139.91,575.406L1133.12,575.428L1133.12,506.264L1409.27,484.123L1409.27,591.089L1148.97,588.283L1148.97,576.113L1148.89,575.932C1148.86,575.839 1148.85,575.736 1148.78,575.667L1148.59,575.586C1148.51,575.546 1148.44,575.48 1148.34,575.48L1139.92,575.406L1139.91,575.406ZM1180.01,613.116L1179.97,613.131L1179.93,613.118L1149.28,616.246L1149.11,616.339L1148.97,616.391L1148.97,592.643L1409.27,596.317L1409.27,621.302L1180.01,613.116ZM693.107,114.025L693.746,112.191L698.556,98.347L703.198,89.968L703.198,89.966L703.333,89.724L703.335,89.722L703.976,88.561L705.683,85.485L708.151,81.031L708.497,80.569L709.003,79.89L709.006,79.889L710.425,77.997L710.427,77.994L711.348,76.761L720.925,63.971L720.925,127.891L707.137,143.954L707.121,144.001L707.082,144.028L697.441,159.204L697.43,159.264L697.387,159.308L691.899,173.079L691.9,173.162L691.86,173.232L691.543,175.666L691.543,127.815L693.107,114.025ZM711.474,65.444L728.274,39.106L728.274,53.178L721.076,61.66L721.069,61.681L721.051,61.692L711.474,74.482L711.474,65.444ZM729.874,51.291L729.54,51.685L729.54,35.383L729.513,35.317L729.423,35.099L729.287,34.907L729.246,34.848L729.075,34.819L728.995,34.786L729.874,33.4L729.874,51.291ZM731.929,48.87L731.14,49.8L731.14,31.446L731.929,30.49L731.929,48.87ZM709.132,66.108L709.286,65.866L709.286,77.404L709.132,77.608L709.132,66.108ZM707.357,78.777L707.357,79.981L707.109,80.312L707.098,80.355L707.062,80.384L706.881,80.712L707.357,78.777ZM1422.07,430.935L1422.07,622.419C1422.07,622.767 1422.35,623.051 1422.7,623.051C1423.05,623.051 1423.33,622.767 1423.33,622.419L1423.33,596.512L1570.33,598.546L1570.34,598.546C1570.69,598.546 1570.97,598.269 1570.97,597.923C1570.98,597.572 1570.7,597.285 1570.35,597.28L1423.33,595.246L1423.33,592.507L1570.33,594.06L1570.34,594.06C1570.69,594.06 1570.97,593.781 1570.97,593.435C1570.97,593.084 1570.7,592.799 1570.35,592.794L1423.33,591.241L1423.33,483.006L1570.39,471.442C1570.74,471.414 1571,471.11 1570.97,470.762C1570.94,470.415 1570.67,470.121 1570.29,470.181L1423.33,481.737L1423.33,479L1570.39,466.956C1570.74,466.929 1571,466.622 1570.97,466.274C1570.94,465.925 1570.62,465.66 1570.29,465.695L1423.33,477.731L1423.33,434.788L1570.41,417.446C1570.76,417.406 1571.01,417.09 1570.97,416.743C1570.93,416.397 1570.6,416.145 1570.26,416.189L1423.33,433.515L1423.33,430.781L1570.42,412.96C1570.76,412.918 1571.01,412.604 1570.97,412.255C1570.92,411.909 1570.63,411.659 1570.26,411.704L1422.62,429.592L1409.83,431.157L1133.12,465.35L1133.12,454.226L1133.04,454.016L1132.95,453.799L1132.73,453.691L1132.53,453.595L1127.91,453.281L1127.87,453.293L1127.83,453.279L1118.77,453.759L1118.75,453.766L1118.74,453.761L1107.85,454.889L1107.83,454.897L1107.82,454.894L1098.14,456.345L1098.12,456.359L1098.09,456.355L1092.18,457.73L1092.01,457.849L1091.82,457.955L1091.08,458.9L1091.02,459.107L1090.95,459.29L1090.95,470.676L953.262,488.153L948.623,488.741L941.551,489.639L941.372,489.741L941.166,489.858L941.075,490.078L940.997,490.267L940.997,505.437L938.007,505.702L938.006,505.703L938.005,505.702L937.577,505.742L937.576,505.742L863.289,512.374L863.288,512.374L842.787,514.06L842.786,514.061L822.945,515.424L822.94,515.423L803.581,516.504L803.58,516.504L785.089,517.287L785.088,517.288L767.77,517.777L760.66,517.861L760.66,507.668L760.6,507.524L760.51,507.307L760.329,507.161L760.208,507.062L759.09,506.728L759.007,506.737L758.929,506.701L755.74,506.6L755.719,506.609L755.698,506.6L751.313,506.758L751.297,506.765L751.281,506.761L746.922,507.134L746.902,507.145L746.879,507.139L743.732,507.621L743.663,507.662L743.586,507.663L742.466,508.128L742.378,508.216L742.212,508.381L742.123,508.596L742.075,508.712L742.075,517.891L737.785,517.856L737.784,517.856L725.611,517.448L725.609,517.449L715.738,516.746L715.737,516.746L708.358,515.753L705.099,514.847L709.236,513.312L718.226,511.167L731.419,508.816L731.422,508.816L760.022,504.325L760.023,504.324L793.445,499.167L793.446,499.166L832.258,493.272L877.701,486.466L962.043,474.051L995.559,469.174L995.56,469.174L1226.51,436.243L1226.54,436.241L1570.43,388.017C1570.77,387.967 1571.01,387.646 1570.97,387.3C1570.92,386.954 1570.62,386.729 1570.25,386.761L1226.36,434.985L1226.36,434.988L995.379,467.923L995.376,467.923L961.86,472.799L877.515,485.215L877.514,485.216L877.513,485.215L832.07,492.02L793.254,497.915L793.254,497.916L793.252,497.915L759.827,503.074L759.825,503.074L731.224,507.564L731.218,507.568L731.214,507.566L717.99,509.923L717.974,509.934L717.955,509.931L708.905,512.09L708.872,512.113L708.831,512.112L703.521,514.083L703.42,514.177L703.292,514.231L703.01,514.516L701.551,515.977L701.547,515.985L701.538,515.989L701.453,516.213L701.369,516.433L701.465,516.666L701.551,516.872L701.559,516.875L701.563,516.884L703.148,518.383L703.303,518.445L703.42,518.534L708.064,519.765L708.132,519.774L708.146,519.782L715.571,520.739L715.611,520.742L722.755,521.227L717.522,521.063L717.521,521.064L706.625,520.341L699.881,519.503L698.366,519.314L693.229,518.027L691.807,516.886L692.871,515.596L698.173,513.503L707.729,511.135L707.73,511.135L721.657,508.583L721.66,508.583L735.482,506.345L735.483,506.345L766.249,501.437L783.405,498.734L783.406,498.733L821.902,492.74L867.055,485.814L867.056,485.813L892.629,481.931L984.649,468.141L984.65,468.14L1062.79,456.654L1439.33,402.233L1439.34,402.232L1570.43,383.494C1570.77,383.445 1571.01,383.126 1570.96,382.78C1570.92,382.433 1570.59,382.179 1570.25,382.243L1439.15,400.982L1062.6,455.403L985.188,466.783L985.188,390.224L989.99,389.021L995.198,387.718L1000.53,386.382L1001.5,386.14L1046.07,375.014L1057.58,391.449L1057.64,391.482L1057.72,391.584L1057.73,391.602L1087.74,412.975L1087.77,412.986L1087.78,413.004L1101.05,420.772C1101.15,420.831 1101.26,420.858 1101.37,420.858C1101.59,420.858 1101.8,420.747 1101.91,420.544C1102.09,420.242 1101.99,419.857 1101.69,419.679L1089.92,412.787L1570.45,329.703C1570.79,329.644 1571.02,329.318 1570.96,328.971C1570.91,328.63 1570.6,328.383 1570.23,328.457L1088.26,411.789L1059.66,391.418L1570.47,288.556C1570.81,288.487 1571.03,288.153 1570.96,287.809C1570.89,287.47 1570.59,287.253 1570.21,287.315L1058.38,390.383L1046.85,373.932L1024.84,342.503L1570.5,198.69C1570.84,198.6 1571.04,198.252 1570.95,197.916C1570.86,197.579 1570.53,197.379 1570.18,197.463L1024.7,341.228L1026.75,333.805L1570.5,185.546C1570.84,185.455 1571.04,185.106 1570.95,184.77C1570.86,184.434 1570.51,184.236 1570.17,184.325L1027.14,332.386L1027.76,330.166L1029.16,325.063L1207.48,274.847L1207.49,274.846L1207.5,274.844L1207.56,274.824L1289.99,251.612L1367.13,229.889L1367.14,229.887L1367.14,229.886L1367.2,229.87L1407.99,218.385L1407.99,218.383L1408,218.383L1408.01,218.378L1527.29,184.787L1542.65,180.462L1558.38,176.033L1558.39,176.031L1558.8,175.918L1558.8,175.915L1570.51,172.619C1570.85,172.525 1571.04,172.176 1570.95,171.84C1570.86,171.503 1570.51,171.306 1570.17,171.402L1559.27,174.472L1559.27,173.118L1570.52,169.78C1570.85,169.681 1571.05,169.33 1570.94,168.993C1570.91,168.883 1570.82,168.816 1570.74,168.74C1570.91,168.582 1571.02,168.37 1570.94,168.133C1570.85,167.799 1570.49,167.604 1570.16,167.708L1558.04,171.311L1557.99,171.356L1557.91,171.365L1557.86,171.436L1557.74,171.555L1557.66,171.687L1557.62,171.834L1557.59,171.916L1557.59,174.942L1543.11,179.02L1543.11,172.691L1570.52,164.456C1570.86,164.355 1571.05,164.004 1570.94,163.667C1570.85,163.333 1570.5,163.138 1570.16,163.244L1542.29,171.615L1289.64,248.281L1207.13,273.633L1207.12,273.635L1045.5,319.15L1062.89,313.618L1062.89,313.616L1159.4,283.173L1159.41,283.172L1281.26,245.03L1537.42,165.527L1537.43,165.524L1570.53,155.309C1570.86,155.205 1571.05,154.852 1570.94,154.515C1570.84,154.184 1570.5,154.006 1570.15,154.097L1537.06,164.313L1537.05,164.317L1280.89,243.823L1159.03,281.966L1159.02,281.966L1062.51,312.411L1062.5,312.411L985.188,337.007L985.188,234.566L990.099,232.327L995.307,229.95L1000.64,227.517L1001.61,227.077L1021.92,217.812L1062.96,199.179L1062.96,199.177L1108.55,178.563L1111.52,177.228L1118.6,174.038L1125.84,170.779L1125.85,170.776L1126.79,170.356L1126.79,170.352L1159.46,155.638L1159.47,155.636L1280,101.677L1280,101.675L1290.08,97.182L1300.41,92.582L1301.21,92.226L1354.96,68.282L1505.29,1.62C1505.61,1.478 1505.75,1.105 1505.61,0.784C1505.47,0.465 1505.1,0.321 1504.78,0.463L1354.44,67.125L1301.58,90.672L1301.58,35.446L1369.94,1.609C1370.25,1.453 1370.38,1.074 1370.23,0.761C1370.07,0.449 1369.7,0.319 1369.38,0.474L1367.8,1.254C1367.86,1.097 1367.86,0.921 1367.78,0.76C1367.63,0.449 1367.25,0.319 1366.93,0.474L1299.87,33.738L1299.8,33.818L1299.69,33.873L1299.64,34.001L1299.56,34.207L1299.52,34.306L1299.52,91.592L1290.46,95.628L1290.46,36.269L1359.88,1.608C1360.19,1.452 1360.32,1.071 1360.16,0.758C1360.01,0.447 1359.62,0.322 1359.31,0.475L1289.54,35.312L1289.54,35.313L1118.05,122.015L994.755,185.24L994.753,185.242L901.726,233.759L901.725,233.76L901.721,233.761L831.422,271.14L831.42,271.142L831.417,271.142L775.302,301.64L775.3,301.641L775.294,301.642L730.198,326.746L730.172,326.779L730.136,326.788L726.314,329.557L717.762,334.983L717.736,335.02L717.691,335.035L711.541,340.258L708.128,342.73L708.101,342.774L708.015,342.885L707.94,342.945L706.738,345.217L705.507,346.845L703.237,349.847L703.208,349.959L703.131,350.057L701.963,354.226L700.888,356.254L700.873,356.407L700.814,356.55L700.814,369.405L698.602,368.424L693.483,363.855L691.568,358.38L693.075,351.887L698.451,344.328L708.001,335.902L721.874,326.848L721.875,326.847L735.698,318.887L735.699,318.885L750.518,310.426L750.521,310.426L766.462,301.407L766.463,301.405L783.607,291.787L783.615,291.785L802.117,281.486L822.112,270.443L822.114,270.44L843.755,258.577L843.759,258.576L867.26,245.784L892.83,231.962L892.834,231.961L920.745,216.971L951.298,200.663L951.3,200.66L984.845,182.864L984.849,182.864L1021.95,163.395L1062.99,141.959L1062.99,141.956L1108.58,118.242L1159.51,91.863L1159.51,91.86L1216.69,62.352L1216.7,62.35L1335.02,1.604C1335.33,1.445 1335.46,1.064 1335.3,0.752C1335.13,0.439 1334.75,0.318 1334.44,0.479L1216.12,61.222L1216.12,61.226L1158.92,90.739L1158.92,90.74L1108,117.119L1062.4,140.836L1021.37,162.273L985.188,181.254L985.188,78.927L990.186,75.619L995.393,72.172L1000.72,68.645L1000.73,68.643L1001.7,68.003L1001.7,67.999L1022,54.56L1022.01,54.559L1063.04,27.515L1063.05,27.512L1102.58,1.571C1102.88,1.379 1102.96,0.987 1102.76,0.694C1102.57,0.401 1102.18,0.319 1101.89,0.512L1062.35,26.456L1062.35,26.457L1021.31,53.5L1021.31,53.504L1001.98,66.297L1001.98,31.19L1043.77,1.558C1044.05,1.356 1044.12,0.961 1043.92,0.676C1043.72,0.39 1043.32,0.323 1043.04,0.525L1042.28,1.062C1042.28,0.929 1042.27,0.791 1042.19,0.674C1041.99,0.387 1041.59,0.323 1041.31,0.526L1000.01,29.869L999.983,29.916L999.89,30.036L999.81,30.106L999.804,30.2L999.766,30.335L999.745,30.385L999.745,67.775L995.678,70.468L995.678,31.933L1038.22,1.557C1038.51,1.353 1038.57,0.959 1038.37,0.673C1038.16,0.387 1037.77,0.323 1037.49,0.526L994.676,31.091L994.674,31.095L901.647,98.643L901.646,98.644L901.642,98.645L831.343,150.685L831.34,150.689L831.338,150.69L775.223,193.153L775.221,193.156L775.215,193.158L730.119,228.106L730.098,228.142L730.059,228.159L730.058,228.16L726.225,232.028L717.683,239.572L717.661,239.617L717.619,239.639L711.488,246.89L708.049,250.359L707.998,250.482L707.908,250.579L706.701,253.753L703.408,259.817L703.185,260.228L703.176,260.316L703.121,260.403L701.945,266.244L700.856,269.107L700.859,269.223L700.814,269.332L700.814,278.345L697.505,282.028L697.482,282.093L697.423,282.139L696.618,283.568L693.517,279.715L691.557,271.91L693.098,262.664L698.503,252.079L708.089,240.308L721.953,227.708L721.954,227.708L735.777,216.625L735.779,216.621L750.6,204.842L750.601,204.842L766.535,192.292L766.541,192.29L783.697,178.887L783.699,178.884L802.195,164.553L802.196,164.552L822.191,149.179L822.192,149.177L843.84,132.656L867.338,114.847L867.339,114.847L892.916,95.599L892.917,95.597L920.824,74.728L951.374,52.029L951.375,52.028L984.931,27.241L984.932,27.24L1020.09,1.552C1020.38,1.347 1020.44,0.95 1020.23,0.668C1020.02,0.384 1019.63,0.323 1019.35,0.531L985.188,25.486L985.188,1.042C985.188,0.692 984.904,0.408 984.555,0.408C984.206,0.408 983.922,0.692 983.922,1.042L983.922,26.412L950.623,51.009L950.623,51.011L950.621,51.012L920.067,73.715L892.158,94.584L892.154,94.585L866.578,113.833L866.577,113.835L866.575,113.835L843.074,131.647L843.073,131.65L821.424,148.174L821.42,148.175L801.425,163.548L801.423,163.551L801.422,163.551L782.919,177.887L782.916,177.888L765.759,191.291L765.757,191.295L749.82,203.848L749.818,203.85L749.817,203.85L734.989,215.635L734.985,215.636L722.191,225.894L722.191,161.426L729.345,154.614L730.945,153.088L730.945,153.086L730.955,153.076L733,151.133L733.843,150.329L735.816,148.45L735.816,148.449L750.643,134.456L766.58,119.545L773.573,113.056L776.034,110.772L778.568,108.42L779.456,107.599L783.737,103.625L783.738,103.621L802.234,86.6L802.238,86.598L822.23,68.339L822.231,68.339L829.053,62.152L832.144,59.35L835.322,56.469L836.247,55.631L843.883,48.71L843.884,48.706L867.379,27.556L867.381,27.555L892.958,4.689L892.958,4.687L896.531,1.515C896.793,1.283 896.815,0.882 896.583,0.621C896.355,0.361 895.952,0.339 895.69,0.568L892.114,3.743L892.114,3.744L892.112,3.744L866.536,26.61L866.535,26.612L843.036,47.768L843.032,47.77L836.454,53.732L836.454,30.289L866.971,1.501C867.226,1.262 867.236,0.861 866.996,0.608C866.756,0.352 866.358,0.34 866.101,0.582L865.774,0.89C865.747,0.791 865.74,0.686 865.665,0.606C865.428,0.352 865.027,0.34 864.77,0.582L834.461,29.235L834.457,29.244L834.395,29.379L834.298,29.487L834.304,29.587L834.267,29.686L834.263,29.695L834.263,55.718L832.352,57.451L832.352,30.961L863.403,1.5C863.657,1.26 863.667,0.86 863.427,0.606C863.183,0.352 862.782,0.34 862.532,0.583L831.283,30.232L831.283,30.234L831.279,30.236L775.163,84.662L775.162,84.665L775.159,84.667L730.062,129.463L730.061,129.466L730.044,129.504L730.008,129.525L726.175,134.48L717.626,144.162L717.612,144.205L717.572,144.231L711.42,153.555L708,157.975L707.968,158.089L707.893,158.183L706.683,162.26L703.158,170.584L703.157,170.664L703.116,170.732L702.752,173.042L701.936,178.242L700.841,181.934L700.85,182.026L700.814,182.114L700.814,185.007L697.453,189.911L697.44,189.975L697.394,190.02L694.413,196.951L693.535,195.552L691.551,185.428L693.105,173.475L698.544,159.826L708.124,144.747L722.025,128.553L735.834,114.365L750.663,99.259L766.6,83.171L783.752,65.997L802.255,47.619L822.251,27.915L822.251,27.913L843.9,6.735L843.901,6.733L849.293,1.495C849.545,1.252 849.55,0.851 849.308,0.6C849.063,0.353 848.662,0.344 848.413,0.588L843.017,5.829L843.015,5.829L821.363,27.011L821.361,27.011L801.365,46.719L782.861,65.097L782.861,65.098L782.859,65.099L765.703,82.278L765.702,82.28L765.7,82.281L749.76,98.371L749.759,98.373L749.758,98.373L734.929,113.479L722.191,126.568L722.191,62.303L729.389,53.821L730.989,51.934L733.044,49.513L733.888,48.519L735.863,46.192L750.687,28.881L750.69,28.879L766.63,10.428L766.631,10.426L773.62,2.403L774.444,1.457C774.674,1.194 774.647,0.794 774.382,0.564C774.149,0.357 773.808,0.386 773.571,0.586C773.458,0.48 773.31,0.408 773.143,0.408C772.794,0.408 772.51,0.692 772.51,1.042L772.51,1.751L765.673,9.599L765.67,9.6L749.731,28.051L749.729,28.055L734.901,45.369L734.901,45.37L734.899,45.371L734.038,46.385L734.038,30.829L758.415,1.446C758.638,1.176 758.601,0.778 758.331,0.554C758.069,0.334 757.668,0.369 757.441,0.637L757.353,0.743L757.253,0.554C756.986,0.334 756.585,0.366 756.363,0.638L756.021,1.051C756.025,0.864 755.971,0.681 755.816,0.553C755.547,0.331 755.148,0.368 754.926,0.638L730.02,30.816L730.008,30.857L729.973,30.881L726.137,36.932L717.589,48.739L717.579,48.78L717.545,48.809L711.395,60.177L707.965,65.586L707.948,65.686L707.883,65.775L706.665,70.778L703.143,80.923L703.147,80.992L703.114,81.049L702.508,85.769L702.031,89.461L697.421,97.782L697.415,97.839L697.376,97.881L693.275,109.686L691.549,98.944L693.112,84.283L698.558,67.612L708.161,49.175L722.064,29.421L735.875,12.107L735.876,12.106L744.464,1.438C744.684,1.166 744.642,0.767 744.37,0.548C744.093,0.331 743.697,0.37 743.479,0.645L734.889,11.316L734.889,11.317L734.886,11.318L722.191,27.233L722.191,1.042C722.191,0.692 721.907,0.408 721.558,0.408C721.209,0.408 720.925,0.692 720.925,1.042L720.925,28.841L707.1,48.487L707.09,48.53L707.055,48.559L697.414,67.07L697.409,67.126L697.374,67.167L691.887,83.964L691.892,84.03L691.857,84.093L691.543,87.039L691.543,41.337L693.112,24.847L693.158,24.691L693.158,24.69L698.571,6.128L700.811,1.309C700.96,0.991 700.821,0.615 700.505,0.468C700.188,0.319 699.81,0.459 699.664,0.774L697.401,5.642L697.399,5.692L697.367,5.732L692.776,21.476L691.548,12.456L692.574,1.098C692.606,0.75 692.349,0.443 692.001,0.411C691.711,0.386 691.532,0.545 691.424,0.755C691.316,0.561 691.147,0.408 690.91,0.408C690.561,0.408 690.277,0.692 690.277,1.042L690.277,12.473L690.294,12.514L690.282,12.559L691.903,24.465L691.879,24.547L691.886,24.609L691.857,24.664L690.28,41.242L690.289,41.273L690.277,41.302L690.277,98.959L690.297,99.008L690.285,99.061L692.312,111.682L692.368,111.781L692.376,111.872L692.46,112.032L691.889,113.67L691.894,113.74L691.86,113.806L690.282,127.715L690.292,127.751L690.277,127.787L690.277,185.445L690.302,185.505L690.29,185.566L692.317,195.912L692.384,196.023L692.401,196.128L693.806,198.365L691.907,202.782L691.906,202.867L691.86,202.943L690.282,214.187L690.294,214.234L690.277,214.275L690.277,271.931L690.308,272.007L690.297,272.085L692.324,280.158L692.414,280.296L692.446,280.403L695.949,284.756L695.711,285.177L626.862,255.947L316.617,124.231L316.503,124.23L316.402,124.182L316.279,124.227C316.188,124.241 316.116,124.263 316.039,124.315L315.885,124.469L315.787,124.567L315.787,124.57L231.485,325.062L231.484,325.177L231.437,325.272L231.125,331.096L231.171,331.225L231.211,331.409L231.268,331.5L231.412,331.614L231.507,331.711L231.587,331.728L231.616,331.748L253.209,336.662L252.975,341.076L253.013,341.184L253.057,341.359L253.118,341.481L253.241,341.584L253.309,341.667L253.423,341.696L253.469,341.729L266.26,344.587L267.453,355.786L267.53,355.935L267.59,356.091L267.64,356.149L267.832,356.257L267.955,356.34L358.924,375.101L379.338,492.31L379.365,492.358L379.362,492.406L379.44,492.511L379.518,492.623L379.578,492.695L379.81,492.786L379.886,492.829L380.346,492.884L380.51,493.823L380.535,493.867L380.532,493.915L380.611,494.021L380.693,494.138L380.75,494.208L380.98,494.298L381.058,494.342L437.027,500.971L450.618,581.61L438.776,581.649L438.591,581.727C438.501,581.758 438.4,581.768 438.333,581.834L438.258,582.011C438.213,582.097 438.147,582.172 438.146,582.275L438.147,582.279L438.146,582.281L438.146,584.084L21.256,586.452C20.906,586.454 20.624,586.739 20.627,587.087C20.629,587.436 20.911,587.718 21.26,587.718L21.263,587.718L438.146,585.35L438.146,585.38L21.255,588.277C20.906,588.279 20.624,588.563 20.627,588.915C20.628,589.069 20.7,589.201 20.793,589.31C20.696,589.422 20.625,589.561 20.627,589.721C20.629,590.069 20.912,590.349 21.26,590.349L21.265,590.349L105.382,589.719L20.943,638.343C20.64,638.519 20.536,638.905 20.711,639.209C20.828,639.412 21.041,639.525 21.26,639.525C21.367,639.525 21.476,639.498 21.575,639.441L107.149,590.164L107.149,590.953L20.896,651.449C20.609,651.652 20.54,652.045 20.742,652.332C20.864,652.507 21.061,652.602 21.26,652.602C21.386,652.602 21.513,652.564 21.623,652.488L108.146,591.803L108.177,591.752L108.302,591.557L108.393,591.336L108.415,591.283L108.415,590.989L212.819,590.104L212.819,590.317L212.897,590.505L212.988,590.724L213.191,590.841L213.37,590.945L305.658,602.918L305.74,602.923L305.752,602.923L329.928,602.434L329.928,605.032L330.005,605.217L330.098,605.441L330.302,605.557L330.482,605.66L1042.67,696.402L1042.75,696.407C1043.06,696.407 1043.33,696.175 1043.38,695.853C1043.42,695.507 1043.18,695.19 1042.83,695.146L331.194,604.475L331.194,601.06L1242.62,696.405L1242.68,696.407C1243,696.407 1243.28,696.165 1243.31,695.841C1243.35,695.492 1243.1,695.181 1242.75,695.143L340.846,600.794L396.699,599.735L395.999,599.85L363.23,600.514L363.071,600.584C362.977,600.612 362.886,600.626 362.816,600.696L362.714,600.892L362.611,601.088L362.623,601.125L362.609,601.16L362.613,601.169L362.609,601.18C362.609,601.291 362.677,601.374 362.727,601.465L362.766,601.558C362.882,601.705 363.041,601.813 363.242,601.813L363.299,601.789L517.943,616.256L518.073,616.326L1372.69,696.405L1372.75,696.407C1372.88,696.407 1373,696.344 1373.11,696.268L1374.56,696.405L1374.62,696.407C1374.95,696.407 1375.22,696.162 1375.25,695.833C1375.28,695.485 1375.03,695.176 1374.68,695.143L527.72,615.899L561.489,614.585L608.902,612.74L608.904,612.74L609.377,612.72L634.75,611.734L640.794,611.498L740.905,617.705L740.945,617.705C741.115,617.705 741.267,617.635 741.382,617.524L741.446,617.39C741.501,617.303 741.571,617.223 741.578,617.112L741.57,617.09L741.578,617.072L741.578,577.961L742.29,577.958L742.291,577.958L742.713,577.955L760.03,577.896L846.086,577.606L854.461,577.579L911.447,577.396L924.201,577.354L933.722,577.324L937.624,577.31L938.066,577.31L941.632,577.297L948.705,577.275L953.343,577.26L1091.58,576.823L1132.49,576.696L1139.28,576.674L1139.28,648.764C1139.28,649.112 1139.57,649.397 1139.91,649.397C1140.26,649.397 1140.55,649.112 1140.55,648.764L1140.55,648.377L1143.56,648.593L1570.29,679.362L1570.34,679.365C1570.67,679.365 1570.95,679.11 1570.97,678.776C1571,678.427 1570.73,678.126 1570.38,678.101L1143.65,647.332L1140.55,647.11L1140.55,633.438L1570.3,657.703L1570.34,657.703C1570.67,657.703 1570.95,657.443 1570.97,657.104C1570.99,656.756 1570.72,656.457 1570.37,656.437L1146.36,632.496L1148.42,632.206L1148.43,632.2L1148.48,632.196L1148.51,632.193L1149.36,632.073L1570.3,655.022L1570.34,655.022C1570.67,655.022 1570.95,654.76 1570.97,654.424C1570.99,654.075 1570.72,653.776 1570.37,653.756L1149.98,630.836L1149.98,617.536L1570.31,634.102L1570.34,634.102C1570.68,634.102 1570.96,633.836 1570.97,633.494C1570.98,633.146 1570.71,632.851 1570.36,632.836L1158.33,616.597L1180.01,614.384L1409.88,622.592L1409.91,622.592C1410.08,622.592 1410.23,622.521 1410.35,622.408L1410.41,622.264C1410.47,622.175 1410.54,622.093 1410.54,621.981L1410.53,621.969L1410.54,621.958L1410.54,432.345L1422.07,430.935Z" style="fill:rgb(123,123,123);fill-rule:nonzero;"/>
        </g>
    </g>
</svg>
